<svg width="192" height="40" viewBox="0 0 192 40" version="1.1" id="svg1" xmlns="http://www.w3.org/2000/svg" xmlns:svg="http://www.w3.org/2000/svg">
<!--//
 - SDaiLover Logo Vector Image
 - 
 - @author    : Stephanus Bagus Saputra,
 -              ( 戴 Dai 偉 Wie 峯 Funk )
 - @email     : wiefunk@stephanusdai.web.id
 -              teams@sdailover.com
 - @contact   : https://t.me/wiefunkdai
 - @support   : https://opencollective.com/wiefunkdai
 - @link      : https://www.stephanusdai.web.id
 -              https://www.sdailover.com
 - @copyright : Copyright (c) ID 2024 Stephanus Bagus Saputra. All rights reserved.
 - @license   : https://www.sdailover.com/license.html
 - This software using React JS Framework has released under the terms of the BSD License.
//-->
<defs id="defs1"/><g id="layer1"><g id="g1" transform="translate(2.5143086)"><g id="_3186398213968" style="clip-rule:evenodd;fill-rule:evenodd;image-rendering:optimizeQuality;shape-rendering:geometricPrecision;text-rendering:geometricPrecision" transform="matrix(1.3254961,0,0,1.3254961,2.54117,0.11732199)"><path class="fil0" d="M 5.73,22.77 C 22.47,13.33 15.63,6.11 9.69,8.39 7.77,9.13 7.09,8.57 7.21,7.74 7.45,6.1 10.55,4.19 13.06,3.73 c 6.4,-1.17 9.33,5.56 5.58,11.67 -2.67,4.34 -7.98,5.56 -12.91,7.37 z" id="path1" style="fill:#f58634;fill-rule:nonzero"/><path class="fil1" d="M 9.46,4.25 C 3.02,7.39 5.92,9.87 8.6,11.61 c 1.7,1.11 2.49,2.37 2.58,3.66 0.4,5.56 -6.99,4.88 -10.01,11.94 C -0.19,23.64 7.82,18.48 3.38,14.89 -0.89,11.43 0.27,4.07 9.46,4.25 Z" id="path2" style="fill:#2a579a;fill-rule:nonzero"/><path class="fil2" d="M 5.55,3.78 C 13.37,0.73 19.14,0.89 22.76,2.82 24.74,3.88 23.58,3.27 25.04,2.07 25.97,1.3 27.37,1.26 29,1.98 26.13,3.71 26.4,6.47 26.51,7.14 27.03,10.61 25.86,14.62 22.3,18.03 17.94,22.2 9.11,21.88 1.31,28.58 5.42,23.54 12.94,21.58 18.35,18.65 22.49,16.4 23.13,12.4 23.22,9.77 23.44,3.37 16.42,0.78 5.55,3.78 Z M 25.88,2.44 c 0.15,-0.09 0.31,-0.05 0.34,0.08 0.03,0.13 -0.07,0.3 -0.23,0.38 -0.15,0.09 -0.31,0.05 -0.34,-0.08 -0.03,-0.13 0.07,-0.3 0.23,-0.38 z" id="path3" style="fill:#2a579a"/><path class="fil2" d="M 29,1.98 C 27.77,3.18 27.96,4.77 28.4,6.56 30.84,16.57 21.82,21.61 14.68,22.18 21.03,20.77 29.75,16.36 27.78,7.15 27.33,5.06 27.34,3.21 29,1.98 Z" id="path4" style="fill:#2a579a"/></g><text xml:space="preserve" style="font-style:normal;font-variant:normal;font-weight:400;font-stretch:normal;font-size:31.4823px;font-family:'Gentium Basic';-inkscape-font-specification:'Gentium Basic';clip-rule:evenodd;display:none;fill:#f58634;fill-opacity:1;fill-rule:evenodd;stroke-width:2.62352;image-rendering:optimizeQuality;shape-rendering:geometricPrecision;text-rendering:geometricPrecision" x="40.482677" y="28.654636" id="text2606-3-0" transform="matrix(1.0911262,0,-0.16902446,0.91648427,0,0)"><tspan id="tspan2604-6-8" x="40.482677" y="28.654636" style="font-style:normal;font-variant:normal;font-weight:400;font-stretch:normal;font-family:'Gentium Basic';-inkscape-font-specification:'Gentium Basic';fill:#f58634;fill-opacity:1;stroke-width:2.62352">SD<tspan style="fill:#f58634;fill-opacity:1" id="tspan1">ai</tspan>Lover</tspan></text><g id="text2606-3-0-7" style="font-size:31.4823px;font-family:'Gentium Basic';-inkscape-font-specification:'Gentium Basic';clip-rule:evenodd;fill:#f58634;fill-rule:evenodd;stroke-width:2.62352;image-rendering:optimizeQuality;shape-rendering:geometricPrecision;text-rendering:geometricPrecision" transform="matrix(1.0911262,0,-0.16902446,0.91648427,0,0)" aria-label="SDaiLover"><path d="m 54.087089,22.859311 q 0,0.691749 -0.184466,1.414244 -0.184467,0.722494 -0.568772,1.429616 -0.368934,0.69175 -0.937706,1.32201 -0.553399,0.614889 -1.32201,1.076056 -0.753239,0.461166 -1.721689,0.737866 -0.953077,0.2767 -2.105993,0.2767 -0.507283,0 -1.1068,-0.107606 -0.599516,-0.107605 -1.229777,-0.307444 -0.630261,-0.184467 -1.260522,-0.461166 -0.614889,-0.2767 -1.152916,-0.630261 -0.107606,-0.06149 -0.169095,-0.522656 -0.04612,-0.461166 -0.04612,-1.076055 0,-0.630261 0.04612,-1.275894 0.04612,-0.645633 0.169095,-1.060683 l 0.630261,0.07686 q 0.353561,0.906961 0.876216,1.567966 0.538028,0.661006 1.183661,1.1068 0.645633,0.430422 1.383499,0.645633 0.753239,0.199839 1.537222,0.199839 0.69175,0 1.383499,-0.2767 0.707122,-0.292072 1.260522,-0.783983 0.5534,-0.491911 0.906961,-1.137544 0.353561,-0.661005 0.353561,-1.398872 0,-0.937705 -0.41505,-1.614083 -0.41505,-0.676377 -1.091427,-1.199032 -0.661006,-0.522656 -1.52185,-0.937706 -0.860844,-0.41505 -1.767805,-0.830099 -0.891588,-0.41505 -1.752432,-0.876217 -0.860844,-0.461166 -1.537222,-1.076055 -0.661005,-0.614889 -1.076055,-1.414244 -0.41505,-0.814727 -0.41505,-1.936899 0,-0.476539 0.13835,-1.029939 0.13835,-0.553399 0.445794,-1.106799 0.307445,-0.5534 0.783983,-1.060683 0.491911,-0.522656 1.168289,-0.906961 0.691749,-0.3996777 1.583338,-0.6302609 0.891589,-0.2305833 2.01376,-0.2305833 0.69175,0 1.3835,0.1076056 0.707122,0.1076055 1.306638,0.2920721 0.614889,0.1844666 1.1068,0.4457943 0.491911,0.2613276 0.768611,0.5687722 0.107605,0.09223 0,0.368933 -0.09223,0.261328 -0.307445,0.584144 -0.199838,0.307445 -0.461166,0.614889 -0.245955,0.307444 -0.430422,0.476539 l -0.5534,-0.09223 q -0.430422,-0.507283 -0.906961,-0.845472 -0.461166,-0.353561 -0.953077,-0.568772 -0.476539,-0.230583 -0.953078,-0.322816 -0.476538,-0.09223 -0.90696,-0.09223 -0.860844,0 -1.475733,0.261327 -0.599517,0.261328 -0.999194,0.661006 -0.384306,0.384305 -0.568772,0.876216 -0.184467,0.476539 -0.184467,0.906961 0,0.722494 0.41505,1.291266 0.41505,0.5534 1.091427,1.029938 0.676378,0.461167 1.537222,0.876217 0.876216,0.41505 1.783177,0.876216 0.906961,0.445794 1.767805,0.96845 0.876216,0.522655 1.552594,1.199033 0.676378,0.676377 1.091427,1.552594 0.41505,0.860844 0.41505,1.998388 z m 8.347114,-12.743568 q -0.768611,0 -1.506477,0.04612 v 16.125455 q 0,0.338189 0.153722,0.5534 0.215211,0.261327 0.830099,0.399677 0.614889,0.122978 1.813922,0.122978 1.060683,0 2.182855,-0.507283 1.137544,-0.522655 2.075249,-1.567966 0.937705,-1.060683 1.537222,-2.659394 0.599516,-1.59871 0.599516,-3.766193 0,-2.044504 -0.507283,-3.658587 -0.507283,-1.629455 -1.491105,-2.751627 -0.96845,-1.137544 -2.413438,-1.737061 -1.429616,-0.599516 -3.274282,-0.599516 z m 10.299385,8.147275 q 0,1.921527 -0.399678,3.443376 -0.384305,1.506478 -1.04531,2.674766 -0.661006,1.152916 -1.537222,1.967644 -0.860844,0.799355 -1.829294,1.322011 -0.968449,0.507283 -1.967644,0.753238 -0.983821,0.230583 -1.890782,0.230583 H 56.2392 v -0.661005 q 1.04531,-0.215211 1.629454,-0.461166 0.599517,-0.261328 0.599517,-0.476539 V 10.392443 q -0.614889,0.07686 -1.168289,0.153722 -0.553399,0.07686 -1.060682,0.153722 L 56.10085,9.7468098 q 0.676377,-0.1844666 1.552593,-0.3535609 0.891589,-0.1690944 1.875411,-0.2920722 0.983822,-0.1383499 1.983016,-0.1998388 1.014566,-0.076861 1.921527,-0.076861 2.136738,0 3.858426,0.6456331 1.721689,0.630261 2.920722,1.844666 1.214405,1.214405 1.860038,2.966838 0.661005,1.752432 0.661005,3.981404 z" id="path15"/><path d="m 79.543478,27.117415 q 0.922333,0 1.952272,-0.461167 1.04531,-0.476539 2.213599,-1.491105 v -3.981404 q -1.291266,0.215211 -2.136738,0.41505 -0.8301,0.199839 -1.368128,0.41505 -0.538027,0.199839 -0.860844,0.430422 -0.322816,0.230583 -0.568772,0.491911 -0.399677,0.41505 -0.645633,0.953077 -0.245955,0.522656 -0.245955,1.24515 0,0.614888 0.184466,0.999194 0.184467,0.384305 0.445794,0.614889 0.261328,0.215211 0.538028,0.292072 0.292072,0.07686 0.491911,0.07686 z m 8.823652,0.2767 q -1.306638,0.90696 -2.167482,1.306638 -0.845472,0.41505 -1.275894,0.41505 -0.507283,0 -0.845472,-0.707122 -0.338189,-0.707122 -0.368933,-1.952272 -0.69175,0.69175 -1.3835,1.199033 -0.69175,0.507283 -1.352755,0.8301 -0.661005,0.322817 -1.260522,0.476539 -0.584144,0.153722 -1.076055,0.153722 -0.5534,0 -1.137544,-0.184467 -0.584144,-0.184466 -1.060683,-0.584144 -0.461166,-0.399678 -0.768611,-1.029938 -0.307444,-0.630261 -0.307444,-1.52185 0,-1.168288 0.399678,-1.952271 0.41505,-0.783983 0.983822,-1.352756 0.368933,-0.368933 0.830099,-0.691749 0.476539,-0.338189 1.24515,-0.645633 0.783983,-0.307445 1.952271,-0.584145 1.168289,-0.2767 2.936094,-0.538027 V 17.86334 q 0,-0.522655 -0.122978,-0.968449 -0.122978,-0.461167 -0.41505,-0.783983 -0.292072,-0.338189 -0.799355,-0.507284 -0.491911,-0.184466 -1.24515,-0.169094 -0.491911,0.01537 -0.968449,0.169094 -0.476539,0.153723 -0.8301,0.430422 -0.353561,0.2767 -0.5534,0.661006 -0.199839,0.368933 -0.153722,0.830099 0.01537,0.13835 -0.322817,0.322817 -0.322816,0.169094 -0.783983,0.307444 -0.445794,0.13835 -0.891588,0.215211 -0.430422,0.07686 -0.614889,0.03075 l -0.215211,-0.599517 q 0.353561,-0.76861 1.076055,-1.475732 0.722494,-0.707122 1.644827,-1.24515 0.937706,-0.538028 1.967644,-0.860844 1.045311,-0.322817 2.013761,-0.322817 1.690943,0 2.597904,0.891589 0.922333,0.876216 0.922333,2.459555 v 8.66993 q 0,0.645633 0.169095,0.922333 0.169094,0.2767 0.445794,0.2767 0.215211,0 0.5534,-0.07686 0.338188,-0.07686 0.953077,-0.338189 z m 1.291269,1.260521 v -0.661005 q 1.045311,-0.215211 1.598711,-0.461166 0.5534,-0.261328 0.5534,-0.476539 v -8.700675 q 0,-0.783983 -0.03074,-1.260522 -0.03074,-0.491911 -0.230583,-0.753238 -0.199839,-0.2767 -0.645633,-0.399678 -0.430422,-0.122978 -1.24515,-0.199839 v -0.614888 q 0.476539,-0.09223 0.999194,-0.215211 0.538028,-0.13835 1.060683,-0.292072 0.522656,-0.169095 0.999194,-0.353561 0.476539,-0.184467 0.876217,-0.368934 h 0.522655 v 13.158618 q 0,0.184466 0.507283,0.461166 0.522656,0.261328 1.644827,0.476539 v 0.661005 z m 4.91911,-19.3843649 q 0,0.4304221 -0.13835,0.8147279 -0.13835,0.384305 -0.384306,0.676377 -0.230583,0.2767 -0.5534,0.445794 -0.322816,0.169095 -0.707122,0.169095 -0.691749,0 -0.999194,-0.384306 -0.292072,-0.384305 -0.292072,-1.091427 0,-0.4304221 0.13835,-0.8147275 0.13835,-0.3843054 0.384306,-0.6610053 0.245955,-0.2920721 0.553399,-0.4457943 0.322817,-0.1690944 0.69175,-0.1690944 1.306639,0 1.306639,1.4603606 z" id="path16"/></g><g id="text2606-3-0-6" style="font-size:31.4823px;font-family:'Gentium Basic';-inkscape-font-specification:'Gentium Basic';clip-rule:evenodd;fill:#2a579a;fill-rule:evenodd;stroke-width:2.62352;image-rendering:optimizeQuality;shape-rendering:geometricPrecision;text-rendering:geometricPrecision" transform="matrix(1.0911262,0,-0.16902446,0.91648427,0,0)" aria-label="SDaiLover"><path d="m 111.62529,24.903816 q -0.12297,1.337382 -0.32281,2.321204 -0.18447,0.983822 -0.30745,1.429616 H 97.882533 v -0.661005 q 1.045311,-0.215211 1.629455,-0.461166 0.599512,-0.261328 0.599512,-0.476539 v -16.1562 q 0,-0.184467 -0.568768,-0.461166 -0.553399,-0.2767 -1.660199,-0.4919113 V 9.2856433 h 6.917497 v 0.6610054 q -1.04531,0.2152113 -1.64483,0.4765383 -0.58414,0.261328 -0.58414,0.476539 v 15.233867 q 0,0.2767 0.12298,0.491911 0.13835,0.199839 0.46116,0.353561 0.32282,0.13835 0.87622,0.215211 0.5534,0.07686 1.39887,0.07686 h 2.19823 q 0.70712,0 1.18366,-0.07686 0.49191,-0.07686 0.86084,-0.338189 0.36894,-0.2767 0.66101,-0.799355 0.30744,-0.522656 0.63026,-1.429616 z m 12.69746,-3.243538 q 0,-1.214405 -0.39968,-2.305833 -0.39968,-1.106799 -1.02994,-1.936899 -0.63026,-0.845472 -1.42962,-1.337383 -0.79935,-0.491911 -1.58334,-0.491911 -1.16828,0 -1.96764,0.445794 -0.79935,0.445795 -1.29126,1.229778 -0.47654,0.768611 -0.69175,1.829294 -0.21522,1.060683 -0.21522,2.29046 0,1.214405 0.43043,2.321205 0.43042,1.091427 1.07605,1.921527 0.66101,0.830099 1.44499,1.32201 0.78398,0.476539 1.4911,0.476539 1.09143,0 1.87542,-0.399678 0.78398,-0.415049 1.29126,-1.168288 0.50728,-0.753239 0.75324,-1.813922 0.24596,-1.060683 0.24596,-2.382693 z m 2.38269,-0.461167 q 0,1.029939 -0.26133,2.013761 -0.26133,0.983822 -0.72249,1.860038 -0.46117,0.876216 -1.1068,1.629455 -0.64564,0.737866 -1.42962,1.275894 -0.76861,0.538027 -1.64483,0.8301 -0.87621,0.307444 -1.81392,0.307444 -1.46036,0 -2.64402,-0.5534 -1.16829,-0.5534 -2.01376,-1.521849 -0.8301,-0.96845 -1.29127,-2.305833 -0.44579,-1.337383 -0.44579,-2.905349 0,-1.014566 0.24596,-1.998388 0.26132,-0.983822 0.70712,-1.860038 0.46116,-0.891589 1.09143,-1.629455 0.64563,-0.753239 1.41424,-1.291266 0.78398,-0.538028 1.67557,-0.845472 0.90696,-0.307445 1.86004,-0.307445 1.44499,0 2.61328,0.5534 1.18366,0.5534 2.01376,1.537222 0.84547,0.968449 1.29126,2.305832 0.46117,1.337383 0.46117,2.905349 z m 16.4329,-6.179631 q -0.46117,0.107606 -0.75324,0.199839 -0.29207,0.09223 -0.47654,0.215211 -0.18447,0.107606 -0.29207,0.261328 -0.0922,0.13835 -0.1691,0.368933 l -4.35033,11.682885 q -0.13835,0.338188 -0.39968,0.584144 -0.26133,0.230583 -0.56877,0.384305 -0.30745,0.169095 -0.61489,0.261328 -0.29207,0.09223 -0.49191,0.13835 l -5.07283,-13.051012 q -0.13835,-0.430422 -0.53803,-0.645633 -0.39968,-0.230583 -1.16829,-0.399678 v -0.661005 h 5.93367 v 0.661005 q -0.59951,0.07686 -0.98382,0.153722 -0.36893,0.07686 -0.58414,0.199839 -0.19984,0.107606 -0.23058,0.2767 -0.0308,0.169094 0.0615,0.41505 l 3.78157,9.853591 3.55098,-9.853591 q 0.0769,-0.230583 0.0461,-0.384306 -0.0154,-0.169094 -0.19984,-0.276699 -0.18447,-0.122978 -0.53803,-0.199839 -0.33819,-0.09223 -0.90696,-0.184467 v -0.661005 h 4.96523 z m 7.94743,0.491911 q -0.79935,0 -1.47573,0.307444 -0.661,0.307445 -1.18366,0.876217 -0.50728,0.5534 -0.86084,1.337383 -0.33819,0.76861 -0.47654,1.706316 h 6.57931 q 0.35356,0 0.46116,-0.107606 0.12298,-0.122978 0.12298,-0.445794 0,-0.41505 -0.12298,-1.029939 -0.1076,-0.630261 -0.46116,-1.214405 -0.33819,-0.599516 -0.96845,-1.014566 -0.61489,-0.41505 -1.61409,-0.41505 z m 5.68772,4.580921 q -0.2767,0.307444 -0.73786,0.568772 -0.46117,0.261327 -0.95308,0.461166 h -8.08579 q 0.0154,1.199033 0.32282,2.29046 0.32282,1.076056 0.90696,1.906155 0.59952,0.814728 1.42962,1.306639 0.84547,0.491911 1.89078,0.491911 0.47654,0 0.92233,-0.06149 0.46117,-0.06149 0.98383,-0.2767 0.52265,-0.215211 1.15291,-0.630261 0.64564,-0.41505 1.50648,-1.122172 0.19984,0.107606 0.33819,0.307445 0.15372,0.199838 0.23058,0.322816 -1.02994,1.122172 -1.81392,1.813922 -0.76861,0.676377 -1.46036,1.04531 -0.67638,0.368934 -1.35276,0.476539 -0.661,0.122978 -1.44498,0.122978 -1.18366,0 -2.25972,-0.507283 -1.06068,-0.507283 -1.87541,-1.429616 -0.81473,-0.937706 -1.30664,-2.244344 -0.47654,-1.322011 -0.47654,-2.951466 0,-1.029938 0.23059,-2.029132 0.23058,-0.999194 0.661,-1.890783 0.4458,-0.891588 1.07606,-1.644827 0.63026,-0.753239 1.42961,-1.306639 0.33819,-0.230583 0.75324,-0.445794 0.43042,-0.230583 0.89159,-0.399677 0.46117,-0.169095 0.90696,-0.261328 0.46117,-0.107606 0.87622,-0.107606 0.99919,0 1.78317,0.2767 0.78399,0.2767 1.36813,0.753239 0.58415,0.461166 0.98382,1.091427 0.39968,0.614889 0.64564,1.306639 0.26132,0.691749 0.36893,1.414244 0.1076,0.707122 0.1076,1.352755 z m 13.06639,-5.626232 q 0.13835,0.09223 0.12298,0.538028 0,0.445794 -0.12298,1.029938 -0.1076,0.584145 -0.29207,1.199033 -0.18447,0.614889 -0.36893,1.029939 h -0.66101 q -0.0922,-0.614889 -0.26132,-1.045311 -0.1691,-0.430422 -0.39968,-0.676377 -0.21521,-0.261328 -0.49191,-0.368934 -0.26133,-0.122977 -0.5534,-0.122977 -0.33819,0 -0.79936,0.292072 -0.44579,0.2767 -0.92233,0.891588 -0.47654,0.599517 -0.95308,1.552594 -0.46117,0.937705 -0.8301,2.244344 v 6.025909 q 0,0.230583 0.56877,0.476539 0.58415,0.245955 2.02914,0.461166 v 0.661005 h -7.05585 v -0.661005 q 1.01457,-0.230583 1.58334,-0.445794 0.56877,-0.230583 0.56877,-0.491911 v -8.94663 q 0,-0.507283 -0.0307,-0.845472 -0.0307,-0.353561 -0.0769,-0.568772 -0.0461,-0.215211 -0.12297,-0.338189 -0.0615,-0.122978 -0.12298,-0.199839 -0.10761,-0.107605 -0.24596,-0.169094 -0.12298,-0.07686 -0.33819,-0.122978 -0.19983,-0.04612 -0.49191,-0.06149 -0.29207,-0.03074 -0.72249,-0.06149 v -0.614888 q 0.99919,-0.261328 1.95227,-0.522656 0.96845,-0.2767 1.73706,-0.707122 l 0.53803,0.538028 0.19984,3.489493 q 0.41505,-0.845472 0.89159,-1.583338 0.49191,-0.737867 1.04531,-1.275894 0.5534,-0.5534 1.15291,-0.860844 0.61489,-0.307445 1.2759,-0.307445 0.49191,0 1.06068,0.122978 0.56877,0.122978 1.13754,0.445794 z" id="path7"/></g></g></g>
</svg>