<svg xml:space="preserve" width="340" height="100" version="1.1" style="clip-rule:evenodd;fill-rule:evenodd;image-rendering:optimizeQuality;shape-rendering:geometricPrecision;text-rendering:geometricPrecision" viewBox="0 0 340 100" id="svg24" xmlns="http://www.w3.org/2000/svg" xmlns:svg="http://www.w3.org/2000/svg">
<!--//
 - SDaiLover Logo Vector Image
 - 
 - @author    : Stephanus Bagus Saputra,
 -              ( 戴 Dai 偉 Wie 峯 Funk )
 - @email     : wiefunk@stephanusdai.web.id
 -              teams@sdailover.com
 - @contact   : https://t.me/wiefunkdai
 - @support   : https://opencollective.com/wiefunkdai
 - @link      : https://www.stephanusdai.web.id
 -              https://www.sdailover.com
 - @copyright : Copyright (c) ID 2024 Stephanus Bagus Saputra. All rights reserved.
 - @license   : https://www.sdailover.com/license.html
 - This software using React JS Framework has released under the terms of the BSD License.
//-->
<defs id="defs5"><style type="text/css" id="style1">.fil0{fill:#285c9b}.fil2{fill:#0572c7;fill-rule:nonzero}</style></defs><g id="Layer_x0020_1"><metadata id="CorelCorpID_0Corel-Layer"/><g id="g26"><path id="rect24" style="clip-rule:evenodd;fill:#0572c7;fill-opacity:1;fill-rule:evenodd;stroke-width:0;image-rendering:optimizeQuality;shape-rendering:geometricPrecision;text-rendering:geometricPrecision" d="m 258.96289,56.875 c -0.63844,0.0056 -0.58297,0.293283 -0.043,0.675781 0.54,0.43 0.74031,1.488832 0.57031,3.298828 -1.35998,0.14 -3.98101,0.360002 -5.79101,0.5 1.09,-1.679996 1.03094,-1.879767 0.21094,-2.259765 -1.36,-0.6 -1.9793,-0.390389 -1.5293,0.09961 0.61,0.689998 0.19898,1.831408 -0.79102,2.191406 -0.47,0.17 -0.67914,0.308596 -0.36914,1.058594 0.24,0.699998 0.57994,0.719686 1.66992,0.429688 1.02,-0.31 3.2693,-0.738907 6.0293,-1.128907 1.94,-0.289998 5.2408,-0.601015 7.80078,-0.791015 -0.18,0.839998 0.16875,1.300781 0.46875,1.300781 0.41,0 0.85039,-0.239221 1.40039,-1.449219 0.37,-0.819998 0.65032,-1.300703 0.82032,-1.470703 0.34,-0.34 0.20007,-0.601016 -0.91993,-1.041016 -1.42998,-0.549998 -1.88031,-0.329296 -1.57031,0.220704 0.2,0.409998 0.2393,1.010236 0.0293,1.740234 l -5.88867,0.480469 c 0.21,-1.539998 0.33976,-2.29125 0.50976,-2.53125 0.45,-0.7 0.27953,-0.898516 -1.73047,-1.228516 -0.375,-0.0675 -0.66414,-0.09758 -0.87695,-0.0957 z m 24.39649,0.625 c -0.83,0 -1.50883,0.509066 -2.04883,1.539062 -0.53,1.029998 -0.79102,2.140551 -0.79102,3.310547 l -0.0996,3.480469 -1.33984,0.150391 0.0898,1.410156 1.13086,0.128906 -0.0312,6.541016 c 0,0.509998 0.0499,0.810156 0.16992,0.910156 0.11,0.09 0.57133,0.229922 1.36133,0.419922 0.23,0.03 0.44992,0.01898 0.66992,-0.04102 0.22,-0.06 0.33008,-0.170312 0.33008,-0.320312 v -7.669922 l 2.59961,-0.07031 -0.2207,-1.71875 h -2.18946 l 0.0293,-3.40039 c 0,-0.22 0.08,-0.600391 0.25,-1.150391 0.29,-0.919998 0.5307,-1.378906 0.7207,-1.378906 0.1,0 0.16922,0.190313 0.19922,0.570313 0.04,0.369998 0.0902,0.819845 0.16016,1.339843 0.07,0.52 0.32023,0.808907 0.74023,0.878907 0.41,0.07 0.7111,-0.04008 0.8711,-0.330079 0.11,-0.169998 0.17875,-0.449609 0.21875,-0.849609 l 0.18945,-2.169922 c 0,-0.489998 -0.40875,-0.900703 -1.21875,-1.220703 -0.61,-0.24 -1.20103,-0.359375 -1.79101,-0.359375 z m 27.66992,0.111328 c -0.22782,-0.008 -0.44594,0.01586 -0.64844,0.06836 -0.27,0.07 -0.40039,0.200156 -0.40039,0.410156 L 309.75977,73.75 c 0,0.21 -0.009,0.450236 -0.0293,0.740234 0,0.28 0.0499,0.45883 0.16992,0.548828 0.11,0.1 0.31914,0.161641 0.61914,0.181641 0.31,0.03 0.66078,0.05984 1.05078,0.08984 0.21,0 0.40033,-0.03008 0.57031,-0.08008 l -0.0312,-3.960938 0.81054,-0.25 c 0.14,0.24 0.33985,0.540391 0.58985,0.900391 0.25,0.37 0.44031,0.640547 0.57031,0.810547 0.33,0.439998 0.70914,0.889611 1.11914,1.349609 0.36,0.4 0.77047,0.819297 1.23047,1.279297 l 1.28125,-0.660156 -0.0312,-0.638672 -1.57031,-2.169922 -1.37891,-2.021484 3.32031,-5.31836 c -0.18,-0.15 -0.37101,-0.289922 -0.54101,-0.419922 -0.18,-0.129998 -0.31969,-0.231015 -0.42969,-0.291015 l -0.61914,-0.359375 -4.23047,5.388672 0.33984,-10.06836 c 0,-0.629998 -0.43056,-1.019922 -1.31054,-1.169922 -0.0775,-0.01 -0.15454,-0.01687 -0.23047,-0.01953 z m -54.33008,4.621094 c -0.41533,0.0293 -0.53242,0.205078 -0.63867,0.517578 -0.14,0.39 -0.38149,0.579455 -1.27149,1.189453 -1.19,0.789998 -2.64922,1.559924 -3.94922,2.169922 -0.78,0.33 -0.50992,0.720078 0.58008,0.330078 1.13,-0.36 2.08072,-0.749375 2.9707,-1.109375 1.32,0.29 2.71922,0.650236 3.94922,0.990234 -3.33998,1.519998 -7.46048,2.939143 -10.73046,3.619141 -1.3,0.29 -1.05952,0.649686 0.48046,0.429688 3.74,-0.53 7.21924,-1.489848 11.94922,-3.589844 3.47,0.959998 6.2711,1.811564 7.1211,2.101562 1.96998,0.7 2.55031,0.719217 7.32031,-0.05078 1.47,-0.24 1.39883,-0.599219 -0.20117,-0.699219 -5.21,-0.309998 -6.81985,-0.580472 -12.83985,-1.980468 0.64,-0.34 1.38961,-0.721252 2.34961,-1.28125 1.22,-0.65 1.56032,-0.818205 2.07032,-0.908203 0.88998,-0.19 0.92062,-0.511799 -0.60938,-1.091797 -0.99,-0.38 -1.22064,-0.37953 -2.14062,-0.01953 -0.69,0.26 -3.24032,0.600705 -5.32032,0.720703 0.17,-0.07 0.38125,-0.140078 0.78125,-0.330078 0.86,-0.339998 0.78977,-0.610392 -0.74023,-0.90039 -0.525,-0.09 -0.88166,-0.125 -1.13086,-0.107422 z m 46.48047,1.478516 c -0.44,0 -0.88985,0.169765 -1.33985,0.509765 -0.46,0.34 -0.7589,0.729688 -0.8789,1.179688 h -0.47071 l -0.31054,-0.390625 c -0.13,-0.17 -0.32033,-0.289141 -0.57031,-0.369141 -0.25,-0.08 -0.5186,-0.120625 -0.8086,-0.140625 -0.13,-0.02 -0.24156,0.01008 -0.35156,0.08008 -0.1,0.07 -0.1986,0.209688 -0.3086,0.429688 L 298.16992,75 c 0,0.38 0.26102,0.689922 0.79102,0.919922 0.41,0.19 0.86914,0.279297 1.36914,0.279297 0.17,0 0.30086,-0.09883 0.38086,-0.298828 0.02,-0.1 0.0386,-0.20125 0.0586,-0.28125 -0.02,-0.43 -0.0293,-0.849766 -0.0293,-1.259766 v -1.169922 c 0,-0.719998 0.0389,-1.439922 0.12891,-2.169922 0.02,-0.509998 0.0513,-1.028595 0.11133,-1.558593 0.05,-0.53 0.21976,-1.000157 0.50976,-1.410157 0.09,-0.469998 0.25024,-0.890234 0.49024,-1.240234 0.24,-0.35 0.58883,-0.650391 1.04883,-0.900391 0.12,0.15 0.26039,0.298985 0.40039,0.458985 0.13,0.509998 0.18945,1.270783 0.18945,2.300781 l -0.30859,6 c 0.25,0.26 0.56875,0.440547 0.96875,0.560547 0.12,0.04 0.33109,0.08992 0.62109,0.169922 0.3,0.08 0.52016,0.11914 0.66016,0.11914 0.27,0 0.41015,-0.09906 0.41015,-0.289062 l 0.3086,-9.300781 c 0,-0.65 -0.30994,-1.17961 -0.91992,-1.59961 -0.62,-0.409998 -1.33969,-0.619141 -2.17969,-0.61914 z m -41.34766,0.199218 c 0.36891,0.01219 0.36,0.135235 0.1875,0.240235 -0.86,0.629998 -1.73898,1.180314 -2.45898,1.570312 -1.6,-0.34 -3.2,-0.630314 -4.25,-0.820312 0.57,-0.27 1.18851,-0.579924 1.72851,-0.919922 1.09,0.17 2.18102,0.168984 4.29102,-0.04102 0.215,-0.025 0.37898,-0.03336 0.50195,-0.0293 z m 30.76758,0.458985 -0.81055,0.08008 -0.1582,7.101562 c 0,0.35 -0.10055,0.668752 -0.31055,0.96875 -0.21,0.31 -0.67086,0.67008 -1.38086,1.080078 -0.15,-0.139998 -0.28945,-0.279453 -0.43945,-0.439453 -0.12,-0.439998 -0.18945,-1.130314 -0.18945,-2.070312 L 289.75,65.5 c -0.31,-0.21 -0.58078,-0.329141 -0.80078,-0.369141 -0.22,-0.05 -0.42867,-0.09086 -0.63867,-0.130859 -0.21,-0.04 -0.37,-0.07031 -0.5,-0.07031 -0.27,-10e-7 -0.41016,0.08976 -0.41016,0.259765 l -0.43945,7.259766 c 0,0.439998 0.1382,0.880781 0.4082,1.300781 0.17,0.26 0.30992,0.440547 0.41992,0.560547 0.12,0.12 0.27094,0.228594 0.46094,0.308594 l 1.06055,0.541015 c 0.21,0.1 0.46906,0.150391 0.78906,0.150391 0.39,0 0.7207,-0.100547 0.9707,-0.310547 l 1.33985,-1.169922 0.18945,1.070313 c 0.02,0.169998 0.12078,0.298906 0.30078,0.378906 0.17,0.09 0.36984,0.151172 0.58984,0.201172 0.22,0.04 0.35969,0.05859 0.42969,0.05859 0.25,0 0.46039,-0.02961 0.65039,-0.09961 l 0.0293,-10.400391 c -0.56,-0.449998 -1.23,-0.669921 -2,-0.669921 z m -33.63086,3.371093 c -0.56766,-0.0037 -0.6382,0.285393 -0.1582,0.900391 0.07,0.12 0.21023,0.37875 0.24023,0.71875 -1.39,0.17 -3.03103,0.309844 -4.29101,0.339844 -1.26,0.02 -1.1893,0.480781 -0.0293,0.550781 1.02,0.07 1.96939,0.06969 4.35937,-0.07031 v 1.349609 c -0.79,0.07 -3.38015,0.261017 -4.16015,0.291015 -1.16,0.05 -1.2293,0.360002 -0.0293,0.5 0.98,0.17 1.42947,0.2 4.18945,0 v 1.449219 c -3.43998,0.19 -6.98976,0.391407 -8.75976,0.441407 -0.99,0.02 -1.09031,0.209609 -0.0703,0.599609 0.81998,0.34 1.06109,0.359453 2.87109,0.189453 1.94,-0.22 3.709,-0.359688 5.95898,-0.429688 0,1.519998 0.1308,3.180157 0.30078,3.660157 0.17,0.579998 0.44876,0.579998 0.71876,0 0.46998,-1.039998 0.68,-1.930942 0.75,-3.710938 2.81998,-0.07 6.19984,-0.1 7.58984,0 2.73,0.17 2.7307,-0.359453 1.4707,-0.939453 -0.92,-0.439998 -1.6393,-0.459531 -3.7793,-0.269531 -1.25998,0.12 -3.17,0.239375 -5.25,0.359375 v -1.439453 c 3.17,-0.19 3.78008,-0.239844 4.33008,-0.339844 0.85,-0.14 0.77891,-0.511172 0.12891,-0.701172 -0.68,-0.22 -1.45899,-0.238906 -4.45899,0.121094 0,-0.43 -9.3e-4,-0.820002 0.0391,-1.25 2.54998,-0.19 3.30117,-0.269844 3.95117,-0.339844 1.15,-0.12 1.14961,-0.430703 0.0996,-0.720703 -0.72,-0.19 -1.36086,-0.240156 -3.88086,0.08984 0.06,-0.14 0.0999,-0.259375 0.16992,-0.359375 0.23,-0.34 0.0597,-0.530627 -1.57031,-0.890625 -0.2975,-0.065 -0.54125,-0.09836 -0.73047,-0.09961 z"/><path id="path24" style="clip-rule:evenodd;fill:#0572c7;fill-opacity:1;fill-rule:evenodd;stroke-width:0;image-rendering:optimizeQuality;shape-rendering:geometricPrecision;text-rendering:geometricPrecision" d="m 189.20703,57.0625 c -0.64365,0.0023 -0.68789,0.282814 -0.30664,0.507812 0.52,0.32 0.68897,1.278754 0.20899,2.96875 -1.23,0.22 -2.3893,0.380157 -3.0293,0.410157 -0.92,0.05 -0.99086,0.121328 -0.38086,0.361328 0.89,0.29 1.49992,0.308828 3.16992,0.04883 l -0.58008,2.050781 c -2.11,0.19 -6.49851,0.59961 -6.97851,0.59961 -0.51,0 -0.54969,0.119375 0.0703,0.359375 1.33,0.579998 1.52859,0.580156 2.30859,0.410156 0.62,-0.14 4.98016,-0.698361 6.41016,-0.818359 6.08998,-0.55 8.27109,-0.650782 9.87109,-0.550782 2.25,0.14 2.58953,-0.389531 1.76953,-0.769531 -1.08998,-0.509998 -1.80093,-0.581406 -2.96093,-0.441406 -1.19,0.15 -2.30985,0.270469 -4.08985,0.480469 0.48,-0.72 1.06094,-1.470393 1.71094,-1.900391 0.51,-0.34 0.57906,-0.508361 -0.21094,-0.818359 -1.19,-0.51 -2.06883,-0.631327 -2.54883,-0.361329 -0.20998,0.09 -1.02132,0.291094 -2.86132,0.621094 0.37,-0.979998 0.60992,-1.42 0.91992,-1.75 0.37,-0.419998 0.24156,-0.781017 -0.64844,-1.041015 -0.855,-0.27 -1.45756,-0.368594 -1.84375,-0.367188 z m -9.36914,0.304688 c -0.30125,0.04125 -0.33195,0.263281 -0.12695,0.613281 0.4,0.629998 -0.0405,1.70891 -1.81055,4.128906 -1.73,2.309996 -3.13111,3.930082 -5.62109,5.830078 -0.34,0.27 -0.26914,0.429922 0.38086,0.169922 1.72998,-0.719998 3.33898,-1.760238 5.20898,-3.740234 0.3,0.919998 0.4418,2.34008 0.3418,4.080078 -0.1,2.429994 -0.34078,4.360547 -0.55078,5.060547 -0.51,1.709996 -0.43946,2.139377 0.31054,3.109375 0.34,0.459998 0.71953,0.460701 1.01953,-0.0293 0.31,-0.48 0.47883,-1.729145 0.54883,-3.369141 0.03,-1.209998 0.0613,-5.230002 0.0312,-6 -0.07,-2.339996 -0.16984,-2.871486 -1.08984,-3.521484 0.75,-0.819998 1.26031,-1.469143 2.32031,-2.869141 0.64,-0.869998 1.01969,-1.399142 1.42969,-1.61914 0.65,-0.31 0.64961,-0.791096 -0.65039,-1.371094 -0.87,-0.375 -1.44094,-0.513906 -1.74219,-0.472656 z m 40.51172,1.082031 c -0.37,0 -0.67992,0.121095 -0.91992,0.371093 -0.24,0.25 -0.35938,0.529376 -0.35938,0.859376 v 1.660156 c 0,0.339998 0.11914,0.631094 0.36914,0.871094 0.25,0.229998 0.57141,0.349609 0.94141,0.349609 0.38,0 0.69875,-0.05016 0.96875,-0.160156 0.27,-0.11 0.41016,-0.291252 0.41016,-0.53125 v -2.298829 c 0,-0.299998 -0.13946,-0.571015 -0.43946,-0.791015 -0.29,-0.22 -0.6107,-0.330078 -0.9707,-0.330078 z m -26.94922,2.261719 c 0.44,-0.03 0.60936,0.378675 -0.14062,2.138671 -1.19,0.15 -2.54899,0.290157 -3.70899,0.410157 l 0.88867,-2.189454 c 1.15,-0.189998 2.24094,-0.309376 2.96094,-0.359374 z m 21.32031,1.568359 c -0.17,0.499998 -0.39015,1.150705 -0.66015,1.970703 -0.17,0.509998 -0.36961,1.170705 -0.59961,1.970703 -0.41,1.279998 -0.77055,2.47008 -1.06055,3.580078 -0.08,-0.279998 -0.1607,-0.531719 -0.2207,-0.761719 -0.06,-0.229998 -0.20016,-0.929378 -0.41016,-2.109374 l -0.2793,-2.089844 -2,-0.310547 -0.41015,0.740234 -0.43946,1.201172 -0.9414,3.349609 -0.46875,-2.679687 -0.37109,-2.230469 c -0.15,-0.439998 -0.46876,-0.749922 -0.96876,-0.919922 -0.16998,-0.05 -0.34148,-0.100156 -0.52148,-0.160156 -0.18,-0.06 -0.31992,-0.08984 -0.41992,-0.08984 -0.17,0 -0.25,0.05969 -0.25,0.179688 L 206.00977,74.5 l 2.43945,0.410156 0.41016,-1.720703 0.9707,-3.089844 c 0.19,0.41 0.38031,0.830002 0.57031,1.25 0.18,0.43 0.31992,0.861252 0.41992,1.28125 0.09,0.43 0.22063,0.849299 0.39063,1.279297 0.08,0.22 0.15875,0.449455 0.21875,0.689453 l 2.03125,0.429688 c 0.44,-1.389998 0.80961,-2.589613 1.09961,-3.599609 0.29,-1 0.60945,-2.129143 0.93945,-3.369141 0.21,-0.789998 0.40984,-1.551016 0.58984,-2.291016 0.19,-0.739998 0.38961,-1.558752 0.59961,-2.46875 z m 13.51953,1.410156 c -0.78998,0 -1.54023,0.690315 -2.24023,2.070313 -0.7,1.379996 -1.05078,2.719769 -1.05078,4.009765 v 1.990235 c 0,0.339998 0.0807,0.670703 0.2207,0.970703 0.05,0.07 0.10016,0.169062 0.16016,0.289062 0.06,0.12 0.12945,0.190469 0.18945,0.230469 l 1.63086,1.199219 c 0.25,0.17 0.49047,0.279845 0.73047,0.339843 0.24,0.06 0.54992,0.0918 0.91992,0.0918 0.57,0 1.04899,-0.08 1.45899,-0.25 0.41,-0.169998 0.81093,-0.450312 1.21093,-0.820312 0.48,-0.46 0.76914,-0.760391 0.86914,-0.900391 0.23,-0.289998 0.4093,-0.629531 0.5293,-1.019531 0.07,-0.13 0.10156,-0.250078 0.10156,-0.330078 0,-0.21 -0.08,-0.399844 -0.25,-0.589844 -0.17,-0.19 -0.43125,-0.28125 -0.78125,-0.28125 -0.19,0 -0.33015,0.02078 -0.41015,0.05078 0.08,0.15 -0.30946,0.570002 -1.18946,1.25 -0.88,0.68 -1.60945,1.058907 -2.18945,1.128907 -0.27,0.02 -0.51094,-0.07883 -0.71094,-0.298829 -0.2,-0.209998 -0.28906,-0.441173 -0.28906,-0.701171 l -0.0703,-1.169922 c 0,-0.31 0.14015,-0.54875 0.41015,-0.71875 0.13,-0.09 0.38,-0.160469 0.75,-0.230469 L 232.68945,69.410156 232.5,66.349609 c 0,-0.379998 -0.08,-0.710234 -0.25,-0.990234 -0.17,-0.28 -0.41953,-0.568908 -0.76953,-0.878906 -0.34,-0.31 -0.82141,-0.491016 -1.44141,-0.541016 -0.61,-0.05 -1.11953,-0.118517 -1.51953,-0.228515 -0.06,-0.01 -0.1493,-0.02148 -0.2793,-0.02148 z m -8.41992,0.02148 c -0.58,-10e-7 -0.88086,0.209142 -0.88086,0.61914 v 9.34961 c 0,0.559998 0.36961,0.940859 1.09961,1.130859 0.08,0.01 0.20133,0.04031 0.36133,0.07031 0.15,0.04 0.33883,0.04883 0.54883,0.04883 0.37,0 0.56055,-0.09883 0.56055,-0.298829 l 0.27929,-10.101562 c 0,-0.25 -0.14922,-0.459611 -0.44922,-0.599609 -0.3,-0.14 -0.80953,-0.21875 -1.51953,-0.218749 z m -25.38867,0.609374 c -0.27685,7.62e-4 -0.49336,0.04789 -0.66211,0.119141 -0.54,0.27 -2.31,0.560235 -6.5,0.990235 -1.84,-0.31 -1.98031,0.200937 -1.57031,0.460937 0.51,0.34 0.68047,0.530002 1.23047,1.5 0.51,0.839998 0.61086,0.940156 0.88086,0.910156 0.28,-0.02 0.44851,-0.120547 0.47851,-0.310547 0.51,-0.05 1.1918,-0.07039 1.8418,-0.15039 0.27,0.319998 0.40852,0.680783 0.47852,1.550781 -2.35,0.38 -3.34024,0.498828 -3.99024,0.548828 -0.71,0.05 -0.7093,0.120625 -0.0293,0.390625 0.75,0.24 1.04961,0.259844 2.34961,0.08984 0.58,-0.07 1.11993,-0.170236 1.66993,-0.240234 v 1.640624 c -1.54,0.22 -3.00016,0.390079 -4.91016,0.580079 0.55,-1.279998 0.55086,-1.401329 -0.36914,-1.861329 -0.55,-0.309998 -0.74914,-0.208515 -0.61914,0.271485 0.14,0.549998 -0.27141,1.318986 -1.19141,1.708984 -0.44,0.17 -0.50953,0.339844 -0.26953,0.839844 0.17,0.37 0.72039,0.410389 1.40039,0.150391 0.92,-0.36 2.68899,-0.649454 5.95899,-0.939454 -0.04,4.069992 -0.0385,4.410004 0.27148,5.5 0.14,0.55 0.40844,0.529063 0.64844,0.03906 0.58,-1.059998 0.71062,-2.258678 0.64062,-5.638672 2.63,-0.17 4.53055,-0.191094 5.56055,-0.121094 3.09,0.22 3.39976,-0.340156 2.00976,-0.910156 -1.02998,-0.439998 -2.11953,-0.558672 -3.26953,-0.388672 -1.71,0.24 -3.07008,0.43008 -4.33008,0.580078 0,-0.599998 0.0303,-1.131095 0.0703,-1.621093 0.95,-0.12 1.93867,-0.24008 2.88867,-0.330078 1.33,-0.12 1.37023,-0.410157 0.99023,-0.660157 -0.61,-0.379998 -1.52931,-0.33039 -3.77929,0.09961 0.03,-0.1 0.0303,-0.189766 0.0703,-0.259766 0.1,-0.49 0.0697,-0.700158 -0.82031,-1.160156 0.89,-0.1 2.10906,-0.218594 2.78906,-0.308594 0.99,-0.15 1.06031,-0.250469 0.82031,-0.730469 -0.14,-0.19 -0.0701,-0.341094 0.33985,-0.621094 0.27,-0.199998 0.60953,-0.369298 1.01953,-0.529296 0.41,-0.22 0.51109,-0.439219 -0.12891,-0.699219 -0.875,-0.3625 -1.50732,-0.491503 -1.96875,-0.490235 z m 34.82227,0.796876 c 0.0384,-0.0038 0.0765,-0.0043 0.11523,0.002 0.29,0.07 0.50063,0.21164 0.64063,0.43164 0.14,0.22 0.20117,0.479533 0.20117,0.769531 v 1.759766 l -2.5918,0.490234 c 0,-0.289998 0.0411,-0.560312 0.12109,-0.820312 0.08,-0.25 0.20891,-0.559922 0.37891,-0.919922 0.06,-0.17 0.18109,-0.470625 0.37109,-0.890625 0.23625,-0.524998 0.49489,-0.79588 0.76368,-0.822265 z m -35.85352,0.3125 c 0.2,0 0.26961,0.169531 0.0996,0.769531 -0.13,0.459998 -0.34025,0.560156 -0.99023,0.660156 -1.19,0.21 -2.57938,0.410313 -4.35938,0.570313 -0.17,-0.5 -0.29984,-1.009924 -0.33984,-1.419922 2.28998,-0.34 5.10984,-0.600078 5.58984,-0.580078 z"/><path id="path25" style="clip-rule:evenodd;fill:#0572c7;fill-opacity:1;fill-rule:evenodd;stroke-width:0;image-rendering:optimizeQuality;shape-rendering:geometricPrecision;text-rendering:geometricPrecision" d="m 115.76172,57.169922 c -0.66422,-4.69e-4 -0.69844,0.290783 -0.21094,0.800781 0.75,0.649998 1.02,1.679383 1.5,5.109375 -1.74,0.21 -3.88086,0.499063 -6.13086,0.789063 l 0.16992,-1.609375 c 1.39,-0.17 2.79086,-0.408985 3.13086,-0.458985 0.85,-0.17 0.89024,-0.460703 0.24024,-0.720703 -0.54,-0.22 -1.0918,-0.200781 -1.8418,-0.05078 -0.37,0.07 -0.81969,0.169767 -1.42969,0.259765 0.1,-0.839998 0.17055,-1.318281 0.31055,-1.488281 0.37,-0.629998 0.0696,-0.92 -1.40039,-1.25 -1.6,-0.339998 -1.66992,0.03906 -0.91992,0.789063 0.38,0.289998 0.48047,0.870236 0.48047,2.240234 -1.16,0.15 -2.29961,0.289141 -2.84961,0.369141 -0.78,0.09 -0.78149,0.26 -0.27149,0.5 0.27,0.12 1.0211,0.190467 3.1211,-0.01953 l -0.0703,1.589843 c -3.28998,0.34 -6.18015,0.669922 -6.66015,0.669922 -1.5,0.03 -1.52992,0.240547 -0.91992,0.560547 0.98998,0.38 1.57048,0.409922 2.73046,0.169922 0.78,-0.12 4.60946,-0.679688 8.93946,-1.179688 1.29,-0.12 2.44976,-0.219843 3.50976,-0.339843 0.4,2.379994 1.3611,4.99016 2.6211,7.160156 -1.26,1.249998 -2.76008,2.458752 -4.33008,3.46875 -0.47,0.31 -0.26992,0.550234 0.58008,0.240234 1.53,-0.579998 3.00009,-1.489689 4.33007,-2.679687 2.04,3.039994 4.5301,4.989299 7.08008,6.029297 1.13,0.459998 1.97953,0.289921 1.76953,-0.580079 -0.17,-0.649998 -0.30085,-2.309923 -0.13085,-3.419921 0.1,-0.75 -0.27876,-0.798905 -0.71876,0.121093 -1.08998,2.119996 -1.26134,2.100467 -3.61132,0.480469 -0.92,-0.599998 -2.41946,-2.100238 -3.43946,-3.490234 0.95,-1.059998 1.57102,-1.88086 2.04102,-2.63086 0.52,-0.989998 0.85828,-1.588984 0.98828,-1.708984 0.45,-0.36 0.45141,-0.531016 -0.80859,-1.041016 -1.57,-0.549998 -1.84102,-0.359529 -1.54102,0.480469 0.17,0.34 -0.12969,2.050238 -1.42969,3.740234 -0.71,-1.539996 -1.66976,-4.200316 -2.00976,-6.320312 1.53,-0.14 2.73047,-0.209766 3.48047,-0.259766 1.8,-0.07 1.86992,-0.480781 0.91992,-0.800781 -0.86,-0.29 -1.43033,-0.259217 -3.07031,0.05078 -0.24,0.05 -0.77969,0.119454 -1.42969,0.189454 -0.24,-1.849998 -0.33961,-3.730549 -0.0996,-4.310547 0.2,-0.68 0.0998,-0.98961 -1.74024,-1.34961 -0.36498,-0.0675 -0.6575,-0.09945 -0.8789,-0.09961 z m 24.78906,0.980469 c -0.34,0.03 -0.53031,0.12 -0.57031,0.25 0,0.05 -0.0205,0.130234 -0.0606,0.240234 l -0.17969,6.628906 c -0.31,-0.16 -0.66937,-0.258828 -1.10937,-0.298828 -0.43,-0.05 -0.86125,-0.08109 -1.28125,-0.121094 -0.32,-0.03 -0.85914,0.380705 -1.61914,1.220703 -0.75,0.85 -1.19985,1.539846 -1.33985,2.089844 -0.19998,0.51 -0.39031,1.019299 -0.57031,1.529297 -0.28,0.799998 -0.41992,1.499844 -0.41992,2.089844 0,0.789998 0.20891,1.471017 0.62891,2.041015 0.5,0.68 1.32117,1.209376 2.45117,1.609376 0.12,0.03 0.21883,0.05078 0.29883,0.05078 0.32,0 0.72117,-0.180783 1.20117,-0.550781 0.57,-0.42 0.99883,-0.858829 1.29883,-1.298829 l 0.49023,1.669922 c 0.06,0.2 0.21094,0.339922 0.46094,0.419922 0.26,0.09 0.53008,0.188361 0.83008,0.318359 0.14,0.07 0.28039,0.101563 0.40039,0.101563 0.18,0 0.32922,-0.08024 0.44922,-0.240234 0.02,-0.04 0.10023,-0.200002 0.24023,-0.5 v -8.38086 c 0,-0.539998 0.0597,-2.150084 0.17969,-4.830078 0.04,-0.879998 0.0605,-1.889299 0.0605,-3.029297 0,-0.339998 -0.18101,-0.599767 -0.54101,-0.759765 -0.36,-0.17 -0.79883,-0.25 -1.29883,-0.25 z m -19.38086,1.070312 c -1.06,0.03 -1.22945,0.218752 -0.43945,0.71875 0.92,0.58 1.67,1.02125 2.25,1.28125 0.88,0.46 1.42914,-0.139844 1.11914,-0.839844 -0.34,-0.799998 -1.18969,-1.210156 -2.92969,-1.160156 z m 35.99024,0.410156 c -0.37,0 -0.66063,0.119377 -0.89063,0.359375 -0.24,0.24 -0.34961,0.510313 -0.34961,0.820313 v 1.609375 c 0,0.32 0.11938,0.600078 0.35938,0.830078 0.24,0.23 0.54015,0.349609 0.91015,0.349609 0.36,0 0.66969,-0.06016 0.92969,-0.160156 0.26,-0.11 0.39063,-0.279767 0.39063,-0.509765 v -2.21875 c 0,-0.29 -0.13993,-0.551719 -0.41993,-0.761719 -0.28,-0.21 -0.58968,-0.31836 -0.92968,-0.31836 z m -8.49024,4.658203 c -0.56,10e-7 -0.94039,0.191799 -1.15039,0.591797 l -0.95898,1.378907 c -0.65,0.949998 -1.11063,1.721017 -1.39063,2.291015 -0.02,0.08 -0.0704,0.18836 -0.15039,0.31836 -0.02,0.07 -0.0293,0.131173 -0.0293,0.201171 -0.04,0.1 -0.0493,0.189532 -0.0293,0.269532 l 0.17968,0.169922 0.82032,0.570312 0.17968,0.09961 c 0.2,0 0.31938,-0.02961 0.35938,-0.09961 l 0.53906,-0.839844 c 0.32,-0.509998 0.66,-1.00047 1,-1.480468 0.72,-0.999998 1.23172,-1.44961 1.51172,-1.34961 0.16,0.05 0.25836,0.130235 0.31836,0.240235 0.05,0.12 0.0703,0.259923 0.0703,0.419921 v 0.419922 2.640625 c -0.89,0 -1.72953,0.179299 -2.51953,0.529297 -0.8,0.35 -1.37023,0.700782 -1.74023,1.050782 -0.46,0.419998 -0.68946,0.929531 -0.68946,1.519531 0,0.479998 0.16977,0.899767 0.50977,1.259765 0.26,0.28 0.68023,0.569377 1.24023,0.859375 0.22,0.12 0.4793,0.179688 0.7793,0.179688 0.31,0 0.74031,-0.08024 1.32031,-0.240235 0.57,-0.149998 0.93961,-0.218984 1.09961,-0.208984 0.1,0.02 0.21008,0.07969 0.33008,0.179688 0.12,0.09 0.19094,0.149922 0.21094,0.169922 0.13,0.06 0.27898,0.149765 0.45898,0.259765 0.18,0.1 0.37032,0.160156 0.57032,0.160156 0.2,0 0.42015,-0.09 0.66015,-0.25 l 0.0293,-4.730468 c 0,-0.26 0.0509,-0.799143 0.13086,-1.619141 0.08,-0.809998 0.11914,-1.360158 0.11914,-1.660156 0,-0.48 -0.0599,-0.890469 -0.16992,-1.230469 -0.11,-0.35 -0.30985,-0.638672 -0.58985,-0.888672 -0.1,-0.1 -0.27929,-0.191484 -0.52929,-0.271484 -0.25,-0.08 -0.40071,-0.128438 -0.47071,-0.148438 l -1.25976,-0.611328 c -0.24,-0.1 -0.49977,-0.150391 -0.75977,-0.150391 z m 7.9707,0.421876 c -0.55998,-10e-7 -0.83984,0.189845 -0.83984,0.589843 v 9.019531 c 0,0.54 0.34883,0.900079 1.04883,1.080079 0.08,0.02 0.19961,0.04008 0.34961,0.08008 0.15,0.03 0.33125,0.04883 0.53125,0.04883 0.36,0 0.53906,-0.09883 0.53906,-0.298828 L 158.55078,65.5 c 0,-0.25 -0.15142,-0.440078 -0.4414,-0.580078 -0.29,-0.14 -0.77876,-0.208984 -1.46876,-0.208984 z m -42.8789,0.460937 c -0.3575,-0.01625 -0.66156,0.04797 -1.10156,0.167969 -0.62,0.17 -1.54032,0.370547 -3.07032,0.560547 -2.12998,0.259998 -3.12062,0.379687 -4.14062,0.429687 -0.95,-0.24 -1.28844,0.02977 -0.64844,0.509766 0.35,0.289998 0.92016,1.249924 1.16016,2.169922 0.17,0.789998 0.47961,1.041015 0.84961,1.041015 0.11,0 0.23859,-0.08148 0.30859,-0.271484 1.14,-0.14 1.99094,-0.238594 2.71094,-0.308594 0.54,-0.05 1.09031,-0.100391 1.57031,-0.150391 0.27,0.34 0.29992,0.678907 0.16992,1.378907 -1.03,0.12 -1.9507,0.240859 -2.9707,0.380859 -0.07,-0.619998 -0.23961,-0.749297 -1.09961,-1.029297 -0.35,-0.15 -0.64922,0.0693 -0.44922,0.279297 0.21,0.22 0.27986,0.579922 0.33984,0.919922 -0.57998,0.07 -1.12148,0.149453 -1.77148,0.189453 -1.09,0.12 -1.01914,0.340235 -0.36914,0.490235 0.44,0.09 0.99094,0.140701 2.21094,-0.0293 l 0.0996,1.230468 c -2.45,0.27 -4.76008,0.509297 -5.58008,0.529297 -0.96,0.05 -0.99047,0.190547 -0.48047,0.560547 0.27,0.19 1.19064,0.289453 1.64062,0.189453 0.44,-0.1 3.70899,-0.600312 5.45899,-0.820312 1.94,-0.27 5.95969,-0.529297 6.67969,-0.529297 1.33,0 1.53,-0.309611 0.75,-0.599609 -0.72,-0.27 -1.18969,-0.270077 -2.17969,-0.08008 -0.24,0.05 -0.81992,0.07922 -1.66992,0.199219 l 0.43945,-1.279297 c 0.89,-0.07 1.53008,-0.101095 2.08008,-0.121093 0.92,-0.15 0.99047,-0.559219 0.48047,-0.699219 -0.41,-0.1 -1.08875,-0.100469 -2.21875,0.01953 0.07,-0.07 0.0999,-0.170234 0.16992,-0.240234 0.34,-0.34 0.23844,-0.598985 -0.85156,-0.958985 0.38,0 0.65,-0.03125 0.75,-0.03125 0.75,0.08 0.89015,-0.02016 1.16015,-0.410156 0.27,-0.43 0.47969,-0.819689 0.67969,-1.179687 0.2,-0.41 0.54,-0.940079 0.75,-1.080079 0.78,-0.479998 0.85055,-0.649375 -0.43945,-1.109375 -0.65,-0.204998 -1.06047,-0.302109 -1.41797,-0.318359 z m -0.72852,0.837891 c 0.65994,-2.74e-4 0.82649,0.173828 0.67774,0.830078 -0.1,0.459998 -0.13055,0.840781 -0.31055,1.300781 -0.17,0.559998 -0.37125,0.648438 -1.53125,0.648437 -0.07,0 -0.53906,3.13e-4 -1.28906,0.07031 l 0.0293,-0.939453 c 1.01998,-0.12 1.40117,-0.160236 1.70117,-0.240234 0.72,-0.12 0.6192,-0.328985 -0.30078,-0.458985 -0.31,-0.04 -0.61008,-0.02039 -1.33008,0.09961 0.03,-0.139998 0.0706,-0.380781 0.14062,-0.550781 0.06,-0.2 0.0295,-0.289453 -0.31054,-0.439453 1.15998,-0.19 1.63093,-0.260547 2.21093,-0.310547 0.115,-0.0062 0.21823,-0.0097 0.3125,-0.0098 z m 25.70703,0.300781 c 0.16,0 0.35032,0.05039 0.57032,0.150391 0.08,0.03 0.14875,0.218126 0.21875,0.578124 0.05,0.35 0.0801,0.760704 0.0801,1.220704 0,0.339998 -0.0186,0.691017 -0.0586,1.041015 -0.04,0.36 -0.10164,0.658438 -0.18164,0.898438 -0.24,0.769998 -0.64828,1.559845 -1.23828,2.339843 -0.58,0.79 -1.05016,1.191407 -1.41016,1.191407 -0.45,0 -0.66992,-0.390157 -0.66992,-1.160157 0,-0.439998 0.0599,-0.910156 0.16992,-1.410156 0.11,-0.489998 0.25946,-0.980703 0.43946,-1.470703 0.58,-1.609996 0.91953,-2.488672 1.01953,-2.638672 0.33,-0.489998 0.68054,-0.740234 1.06054,-0.740234 z m -29.39062,0.169922 c 0.17,0.259998 0.21094,0.599767 0.21094,1.009765 -0.62,0.07 -0.9611,0.120704 -1.6211,0.220704 -0.51,0.05 -0.54851,0.139765 -0.22851,0.259765 0.3,0.12 0.64859,0.168359 1.80859,0.06836 l -0.0293,0.921876 c -0.71998,0.07 -1.48039,0.169531 -2.40039,0.269531 -0.21,-0.969998 -0.38,-1.719768 -0.75,-2.509766 0.64,-0.03 1.59977,-0.120234 3.00977,-0.240235 z m 2.05078,4.888672 -0.33984,1.351562 c -0.75,0.1 -1.57094,0.189063 -2.46094,0.289063 v -1.298828 c 0.92,-0.15 1.81078,-0.241797 2.80078,-0.341797 z m 38.0293,0.460937 c 0.14,0 0.24078,0.02078 0.30078,0.05078 0.1,0.05 0.15039,0.149063 0.15039,0.289063 l -0.0312,0.919922 c 0,0.16 -0.13992,0.281094 -0.41992,0.371094 -0.08,0.01 -0.22946,0.05867 -0.43946,0.138671 -0.21,0.09 -0.40961,0.140157 -0.59961,0.160157 -0.19998,0.03 -0.43093,0.04102 -0.71093,0.04102 -0.25,0 -0.46992,-0.05992 -0.66992,-0.169922 -0.06,-0.03 -0.12899,-0.08992 -0.20899,-0.169921 0,-0.25 0.0484,-0.421485 0.14844,-0.521485 0.1,-0.1 0.36101,-0.269531 0.79101,-0.519531 0.28,-0.13 0.50946,-0.240313 0.68946,-0.320313 0.42,-0.179998 0.76,-0.269531 1,-0.269531 z M 107.875,73.888672 c -0.26465,-0.02471 -0.38281,0.102344 -0.44531,0.371094 -0.14,0.489998 -1.47,1.5993 -3.75,2.779296 -0.41,0.19 -0.23977,0.410547 0.24023,0.310547 0.78,-0.12 2.17985,-0.69922 3.33985,-1.449218 0.95998,-0.55 1.27007,-0.720627 1.58007,-0.890625 0.82,-0.34 0.81946,-0.430157 -0.31054,-0.910157 -0.285,-0.127498 -0.49551,-0.196113 -0.6543,-0.210937 z m 4.00586,0.02734 c -0.36797,-0.03094 -0.5275,0.153672 -0.25,0.513672 0.41,0.579998 0.95992,1.209767 1.66992,1.759765 0.72,0.649998 1.66883,0.149609 1.29883,-0.650391 -0.17,-0.409998 -1.05906,-1.109531 -2.28906,-1.519531 -0.16,-0.06 -0.30703,-0.0932 -0.42969,-0.103515 z"/><path id="rect25" style="display:inline;fill:#0572c7;fill-opacity:1;stroke-width:0" d="m 210.24023,24.410156 c -1.40999,0 -2.57047,0.410235 -3.48046,1.240235 -1.05,0.959999 -1.57032,2.349455 -1.57032,4.189453 v 20.060547 h 4.22071 v -18.75 c 0,-0.36 0.0504,-0.640079 0.15039,-0.830079 0.09,-0.199999 0.27883,-0.339687 0.54883,-0.429687 0.39999,-0.07 0.92101,1.019768 1.54101,3.259766 0.44,1.559998 0.96961,3.849143 1.59961,6.86914 0.67,3.229997 1.05086,5.010313 1.13086,5.320313 0.41,1.639998 1.11914,2.889766 2.11914,3.759765 0.89,0.78 1.89953,1.160157 3.01953,1.160157 1.3,0 2.41961,-0.47922 3.34961,-1.449219 0.99,-1.039999 1.49024,-2.351174 1.49024,-3.951172 V 24.679688 h -4.21876 v 18.769531 c 10e-6,0.379999 -0.0807,0.680391 -0.2207,0.90039 -0.15,0.21 -0.3293,0.320313 -0.5293,0.320313 -0.17999,0 -0.34,-0.06922 -0.5,-0.199219 -0.15999,-0.14 -0.28109,-0.339844 -0.37109,-0.589844 -0.35,-1.009999 -0.90039,-3.560863 -1.65039,-7.630859 -0.67,-3.719996 -1.37891,-6.42008 -2.12891,-8.080078 -1.11999,-2.499998 -2.62,-3.759766 -4.5,-3.759766 z M 194.51953,24.75 c -0.85,0 -1.62984,0.190547 -2.33984,0.560547 -0.72,0.37 -1.26039,0.89961 -1.65039,1.599609 -0.2,0.42 -0.74844,2.369379 -1.64844,5.859375 -0.81,3.189997 -1.64024,6.531019 -2.49024,10.041016 -0.75999,3.169997 -1.31992,5.539376 -1.66992,7.109375 h 4.54883 l 4.86133,-19.279297 c 0.07,-0.19 0.19867,-0.291016 0.38867,-0.291016 0.19,0 0.30008,0.101016 0.33008,0.291016 l 4.96094,19.279297 h 4.49023 c -0.57,-2.369998 -1.13141,-4.750862 -1.6914,-7.13086 -1.02,-4.239995 -1.83876,-7.589064 -2.46876,-10.039062 -0.87999,-3.489997 -1.44968,-5.429844 -1.67968,-5.839844 -0.36,-0.699999 -0.9011,-1.229609 -1.6211,-1.599609 -0.72,-0.37 -1.50031,-0.560547 -2.32031,-0.560547 z m 108.64063,0 c -0.84,0 -1.62008,0.190547 -2.33008,0.560547 -0.72,0.37 -1.27039,0.89961 -1.65039,1.599609 -0.21,0.42 -0.76039,2.369379 -1.65039,5.859375 -0.82,3.189997 -1.65,6.531019 -2.5,10.041016 -0.76,3.169997 -1.31016,5.539376 -1.66016,7.109375 h 4.55078 l 4.85938,-19.279297 c 0.06,-0.19 0.19062,-0.291016 0.39062,-0.291016 0.19,0 0.29031,0.101016 0.32031,0.291016 l 4.95899,19.279297 h 4.5 c -0.57,-2.369998 -1.13922,-4.750862 -1.69922,-7.13086 -1.01,-4.239995 -1.84094,-7.589064 -2.46094,-10.039062 -0.89,-3.489997 -1.44969,-5.429844 -1.67968,-5.839844 -0.37,-0.699999 -0.90891,-1.229609 -1.62891,-1.599609 -0.72,-0.37 -1.49031,-0.560547 -2.32031,-0.560547 z m -196.85938,0.119141 c -1.62,0 -2.90156,0.790861 -3.85156,2.380859 -0.85,1.409999 -1.2793,3.139455 -1.2793,5.189453 0,2.059998 0.43102,3.800705 1.29102,5.220703 0.95,1.569999 2.21984,2.359375 3.83984,2.359375 h 5.96875 c 0.46,0 0.80078,0.220157 1.05078,0.660157 0.24,0.439999 0.35938,0.970078 0.35938,1.580078 0,0.629999 -0.11938,1.181094 -0.35938,1.621093 -0.27,0.5 -0.62078,0.75 -1.05078,0.75 h -10.16015 v 5.289063 h 10.85156 c 1.61,0 2.88836,-0.790627 3.81836,-2.390625 0.84,-1.419999 1.25976,-3.179768 1.25976,-5.259766 0,-2.069998 -0.41953,-3.829532 -1.26953,-5.269531 -0.94,-1.589998 -2.21031,-2.380859 -3.82031,-2.380859 h -5.95899 c -0.48,0 -0.83961,-0.218438 -1.09961,-0.648438 -0.25999,-0.419999 -0.38085,-0.941016 -0.38085,-1.541015 0,-0.61 0.13039,-1.139845 0.40039,-1.589844 0.26,-0.46 0.62007,-0.679688 1.08007,-0.679688 h 10.12891 v -5.291015 z m 11.94922,0 v 5.291015 h 4.26953 v 19.759766 h 4.16016 V 30.160156 h 4.31054 v -5.291015 z m 19.17969,0 c -1.62,0 -2.89938,0.790861 -3.85938,2.380859 -0.85,1.419999 -1.28125,3.16094 -1.28125,5.210938 0,0.859999 0.091,1.718125 0.29102,2.578124 0.19,0.86 0.45078,1.621486 0.80078,2.271485 -0.36,0.689999 -0.64031,1.449298 -0.82031,2.279297 -0.18,0.829999 -0.27149,1.699844 -0.27149,2.589844 0,2.059997 0.43125,3.80047 1.28125,5.230468 0.96,1.569999 2.23938,2.359375 3.85938,2.359375 h 10.81054 v -5.40039 h -10.10937 c -0.47,0 -0.84156,-0.218438 -1.10156,-0.648438 -0.25,-0.429999 -0.37891,-0.950782 -0.37891,-1.550781 0,-0.49 0.0802,-0.920782 0.24023,-1.300781 0.16,-0.4 0.37993,-0.67961 0.66993,-0.84961 h 10.67968 v -0.138672 -5.261718 h -10.10937 c -0.47,0 -0.84156,-0.218438 -1.10156,-0.648438 -0.25,-0.419999 -0.37891,-0.941016 -0.37891,-1.541015 0,-0.61 0.13039,-1.139845 0.40039,-1.589844 0.26,-0.46 0.63008,-0.679688 1.08008,-0.679688 h 10.10937 v -5.291015 z m 12.71093,0 v 5.291015 h 10.12891 c 0.48,0 0.85086,0.240704 1.13086,0.720703 0.24,0.42 0.35938,0.938829 0.35938,1.548829 0,0.599999 -0.11938,1.099766 -0.35938,1.509765 -0.28,0.45 -0.65086,0.679688 -1.13086,0.679688 h -5.15039 c -1.7,0 -2.97961,0.710626 -3.84961,2.140625 -0.75,1.249998 -1.12891,2.859377 -1.12891,4.859375 -0.01,1.319998 -0.01,2.560235 -0.01,3.740234 v 2.839844 c 0,0.729999 -2.3e-4,1.300703 0.01,1.720703 h 4.16016 v -5.330078 c -0.02,-0.08 -0.0408,-0.179063 -0.0508,-0.289063 0,-0.1 -0.01,-0.271484 -0.01,-0.521484 0,-0.949999 0.14922,-1.739141 0.44922,-2.369141 0.45,-0.929999 1.19047,-1.390625 2.23047,-1.390625 h 4.05078 c 1.62,0 2.89985,-0.789376 3.83985,-2.359375 0.86,-1.409998 1.27929,-3.150705 1.27929,-5.220703 0,-2.049998 -0.42929,-3.788986 -1.27929,-5.208984 -0.95,-1.579999 -2.22985,-2.361328 -3.83985,-2.361328 z m 17.61915,0 v 25.050781 h 4.2207 v -9.900391 h 7.59961 v 9.900391 h 4.2207 V 24.869141 h -4.2207 v 9.75 h -7.59961 v -9.75 z m 81.31054,0 c -1.62,0 -2.89961,0.790861 -3.84961,2.380859 -0.85,1.409999 -1.28125,3.139455 -1.28125,5.189453 0,2.059998 0.44079,3.800705 1.30078,5.220703 0.94,1.569999 2.21008,2.359375 3.83008,2.359375 h 5.96875 c 0.46,0 0.81078,0.220157 1.05078,0.660157 0.24,0.439999 0.35938,0.970078 0.35938,1.580078 0,0.629999 -0.11938,1.181094 -0.35938,1.621093 -0.27,0.5 -0.62078,0.75 -1.05078,0.75 h -10.1582 v 5.289063 h 10.84961 c 1.61,0 2.89031,-0.790627 3.82031,-2.390625 0.84,-1.419999 1.26953,-3.179768 1.26953,-5.259766 0,-2.069998 -0.43125,-3.829532 -1.28125,-5.269531 -0.93,-1.589998 -2.20836,-2.380859 -3.81836,-2.380859 h -5.96093 c -0.47,0 -0.83961,-0.218438 -1.09961,-0.648438 -0.25,-0.419999 -0.38086,-0.941016 -0.38086,-1.541015 0,-0.61 0.13039,-1.139845 0.40039,-1.589844 0.26,-0.46 0.63008,-0.679688 1.08008,-0.679688 h 10.13085 v -5.291015 z m 28.44922,0 v 25.050781 h 9.31055 c 2.24,0 4.01078,-1.279846 5.30078,-3.839844 1.14,-2.269998 1.71875,-5.100706 1.71875,-8.470703 0,-3.439997 -0.58953,-6.359768 -1.76953,-8.759766 -1.31,-2.649997 -3.06,-3.980468 -5.25,-3.980468 z m 36.32031,0 v 25.050781 h 4.21094 V 24.869141 Z m -87.83007,0.220703 v 15.839844 c 0,2.959997 0.8207,5.29047 2.4707,6.980468 1.46,1.519999 3.28875,2.279297 5.46875,2.279297 2.2,0 4.07133,-0.78008 5.61133,-2.330078 1.72,-1.719998 2.57031,-4.02969 2.57031,-6.929687 V 25.089844 h -4.01172 v 14.949218 c 0,1.349999 -0.40875,2.430704 -1.21875,3.220704 -0.72,0.679999 -1.60969,1.029296 -2.67969,1.029296 -1.11,10e-7 -2.04054,-0.35836 -2.81054,-1.068359 -0.84,-0.789999 -1.26954,-1.851642 -1.26954,-3.181641 V 25.089844 Z m 55.73046,5.070312 h 4.39063 c 1.03,0 1.83969,0.719924 2.42969,2.169922 0.52,1.289999 0.77929,2.900549 0.77929,4.810547 0,1.979998 -0.27054,3.659298 -0.81054,5.029297 -0.61,1.539998 -1.40844,2.310547 -2.39844,2.310547 h -4.39063 z"/></g><path id="path47" style="clip-rule:evenodd;display:inline;fill:#285c9b;fill-rule:evenodd;stroke-width:.0595416;image-rendering:optimizeQuality;shape-rendering:geometricPrecision;text-rendering:geometricPrecision" d="m 58.255859,14 c -19.729055,0 -35.726562,15.994949 -35.726562,35.724609 0,19.729057 15.997507,35.72461 35.726562,35.72461 19.729059,0 35.72461,-15.995553 35.72461,-35.72461 C 93.980469,29.994949 77.984918,14 58.255859,14 Z m 0,4.369141 c 18.21194,0 32.976563,14.765219 32.976563,32.976562 0,10.980108 -5.371312,20.701487 -13.625,26.695313 -0.322287,0.234044 -0.645621,0.466941 -0.976563,0.689453 -5.251169,3.530681 -11.571917,5.59375 -18.375,5.59375 -0.410635,0 -0.817608,-0.01637 -1.224609,-0.03125 1.505751,-1.789626 3.029816,-3.565992 3.472656,-4.103516 0.729383,-0.886571 2.17268,-2.186851 2.919922,-2.841797 0.772851,-0.676982 0.361662,-0.984596 0.05859,-2.039062 -0.145411,-0.520489 -0.318769,-0.996233 -0.636719,-1.6875 l -0.002,-0.01563 -0.002,-0.0059 -0.002,-0.002 -0.002,-0.0039 -0.002,-0.0039 -0.002,-0.0059 -0.0039,-0.0059 -0.002,-0.0059 -0.002,-0.0039 -0.0039,-0.0059 -0.002,-0.0059 -0.002,-0.0059 -0.0039,-0.0039 -0.002,-0.0059 -0.002,-0.0059 -0.0039,-0.0059 -0.002,-0.0039 -0.002,-0.002 -0.002,-0.0039 -0.002,-0.0059 -0.002,-0.0059 -0.0039,-0.0059 -0.002,-0.0039 -0.0039,-0.0059 v -0.002 l -0.002,-0.002 -0.002,-0.0059 -0.0039,-0.0059 -0.002,-0.0039 -0.002,-0.0059 -0.0039,-0.0059 -0.002,-0.0059 v -0.002 l -0.0039,-0.002 -0.002,-0.0059 -0.0039,-0.0059 -0.002,-0.0059 -0.002,-0.0039 -0.0039,-0.0059 -0.002,-0.0059 -0.0039,-0.0059 -0.002,-0.0059 -0.0039,-0.0039 -0.002,-0.0059 -0.002,-0.0059 -0.0039,-0.0059 -0.002,-0.0039 -0.002,-0.002 -0.002,-0.0059 -0.0039,-0.0059 -0.002,-0.0059 -0.002,-0.0039 -0.0039,-0.0059 -0.0039,-0.0078 v -0.0039 l -0.002,-0.0039 -0.0039,-0.0039 -0.002,-0.0078 -0.0039,-0.0059 -0.002,-0.0059 -0.0039,-0.0039 -0.002,-0.0078 -0.002,-0.002 -0.002,-0.0039 -0.002,-0.0078 -0.0039,-0.0059 -0.002,-0.0078 -0.0039,-0.0039 -0.002,-0.0059 -0.0039,-0.0078 c -0.791903,-3.695138 -1.653123,-6.117576 -0.462891,-9.933593 0,0 -0.785559,1.799246 -1.054687,3.65039 -0.287587,1.978559 0.924393,6.655 1.662109,8.376953 0.216731,0.505496 -0.144436,0.939726 -0.505859,1.228516 -0.360823,0.288772 -4.622306,4.549449 -5.994141,5.921875 -0.385359,0.385353 -0.914768,0.985438 -1.482422,1.646484 -0.705026,-0.07271 -1.400655,-0.174588 -2.091797,-0.291015 -0.612485,-0.103177 -1.217833,-0.224874 -1.818359,-0.361328 -0.298383,-0.0678 -0.599284,-0.129246 -0.894531,-0.205079 0.05425,-1.094001 0.141643,-2.189819 0.197265,-3.283203 0.06372,-1.261077 0.118235,-2.722964 -0.107421,-3.966797 -0.03631,-0.200639 0.0099,-0.383799 0.109374,-0.554687 0.03454,-0.05954 0.07338,-0.117734 0.113282,-0.173828 0.08395,-0.117268 0.175125,-0.231204 0.265625,-0.34375 0.125035,-0.15593 0.253439,-0.307331 0.380859,-0.460938 0.327481,-0.394165 0.666067,-0.778309 0.994141,-1.171875 0.167893,-0.201857 0.571832,-0.722707 0.783203,-1.099609 -0.133966,-0.156657 -0.264657,-0.315552 -0.386719,-0.480469 -0.703182,-0.947908 -1.195857,-1.972686 -1.689453,-3.02539 -0.05181,-0.0036 -0.103857,-0.01123 -0.15625,-0.02539 -0.09526,-0.02451 -0.182529,-0.05986 -0.261719,-0.107422 -0.732956,0.286394 -1.442435,0.627679 -2.101562,1.060547 -0.478114,0.313786 -0.902835,0.662273 -1.326172,1.033203 0.04703,0.777021 -0.02386,1.58059 0.07617,2.345703 0.09704,0.749629 0.05349,1.146689 -0.447266,1.748047 -0.325096,0.390009 -0.641263,1.024212 -0.871094,1.478516 -0.393565,0.775224 -0.758486,1.568667 -1.121093,2.359375 -0.217326,0.473346 -0.433227,0.947174 -0.652344,1.419922 -0.120547,0.259763 -0.227758,0.525916 -0.335938,0.791015 0.511394,0.256633 1.028921,0.499446 1.554688,0.730469 -0.525702,-0.230201 -1.043728,-0.474065 -1.554688,-0.730469 -0.817079,-0.410016 -1.617982,-0.84808 -2.394531,-1.322265 0.05628,-0.39033 0.118864,-0.758452 0.197266,-1.072266 0.216137,-0.866331 1.373708,-5.922512 1.589843,-6.716797 0.216731,-0.794283 1.010052,-3.177918 1.298829,-3.828125 0.288775,-0.650188 1.951171,-3.90039 1.951171,-3.90039 -3.80617,4.830819 -5.455988,9.679522 -6.298828,14.708984 -0.801368,-0.540757 -1.575035,-1.119341 -2.324218,-1.726563 0.18301,-1.604144 0.411218,-3.190187 0.738281,-4.720703 -0.03912,0.03848 -0.05878,0.05563 -0.09766,0.09375 L 38.248047,72.25 c -2.97e-4,0.0012 3.92e-4,0.0022 0,0.0039 0.527774,-0.517783 1.088255,-1.063767 1.3125,-1.255859 0.505506,-0.433465 2.382787,-2.96114 2.960937,-3.611328 0.577548,-0.65019 3.611329,-3.394531 3.611328,-3.394531 -1.062815,2.873462 -1.741632,5.319295 -2.746093,8.304687 2.864534,-1.360519 2.96236,-3.074411 7.082031,-4.546875 0.05894,0.135237 0.135014,0.226513 0.242188,0.253906 0.0649,0.01634 0.194514,-0.03853 0.367187,-0.144531 0.691274,1.464732 1.115586,2.433422 1.878906,3.462891 0.381661,0.514443 0.926138,1.070863 1.480469,1.662109 0.541232,0.577542 0.960952,0.680281 1.15625,0.324219 0.509673,-0.930029 1.304475,-2.099397 1.587891,-2.382813 0.10361,-0.103649 0.813358,-0.79801 1.373047,-1.80664 0.322117,-0.580539 0.802002,-1.126889 1.191406,-1.732422 0.440009,-0.684716 0.791859,-1.43066 1.15625,-2.13086 0.411431,-0.792504 0.851577,-1.347434 1.304687,-1.951171 l 0.01953,-0.02734 0.002,-0.002 0.01758,-0.02344 0.01953,-0.02539 0.0039,-0.0059 0.01563,-0.02148 0.01953,-0.02539 0.0039,-0.0078 0.01563,-0.01758 0.01953,-0.02734 0.0059,-0.0078 0.0332,-0.04297 0.0078,-0.01367 0.01172,-0.01367 0.01953,-0.02734 0.0098,-0.01563 0.0098,-0.01172 0.01953,-0.02539 0.01172,-0.01953 0.0078,-0.0098 0.01953,-0.02734 0.01367,-0.01953 0.0059,-0.0078 0.01953,-0.02734 0.01563,-0.02344 0.0039,-0.0039 0.01953,-0.02734 0.01953,-0.02734 v -0.002 l 0.01953,-0.02734 0.01953,-0.02734 0.002,-0.002 v -0.002 l 0.03711,-0.05273 0.0039,-0.0059 0.01562,-0.02344 0.02539,-0.03711 0.01563,-0.02148 0.01953,-0.0293 0.0059,-0.01172 0.01367,-0.01758 0.01953,-0.03125 0.0078,-0.01367 0.01172,-0.01563 0.01953,-0.03125 0.0098,-0.01563 0.0098,-0.01563 c 0.05121,-0.0786 0.101733,-0.158849 0.152343,-0.242188 l -0.162109,11.455078 0.0059,0.01172 c 0,0 1.988768,-0.740146 2.927735,-1.101562 0.938971,-0.360837 1.515535,-0.720777 1.876953,-0.9375 0.361416,-0.216742 0.579441,-0.36153 0.398437,-1.011719 -0.180419,-0.650189 -0.470549,-2.672514 -0.615234,-3.466797 -0.144095,-0.794266 -0.577971,-2.600191 -0.722656,-3.177734 -0.07325,-0.299499 -0.198347,-0.748808 -0.314453,-1.167969 0.108972,0.07025 0.225497,0.170292 0.304687,0.25 l 0.09766,0.09766 0.125,0.05469 c 0.703186,0.30665 1.461187,0.632123 2.132813,0.99414 0.891931,0.4799 1.741339,0.958877 2.666015,1.382813 0.343555,0.157202 0.687173,0.305043 1.039063,0.441406 0.75201,0.291748 1.497488,0.57125 2.244141,0.880859 0.704967,0.292366 1.415123,0.58618 2.109375,0.902344 0.345937,0.157746 0.683644,0.321944 1.011718,0.513672 0.568028,0.331048 1.201338,0.708832 1.71875,1.111328 0.406074,0.316164 0.790403,0.737908 1.160157,1.117188 0.04525,0.04648 0.09011,0.09153 0.134765,0.136718 0.273294,0.272706 0.556983,0.302766 0.916016,0.337891 l 0.01953,0.002 c 0.167912,0.143406 0.353151,0.340278 0.523438,0.533203 -0.338789,0.09476 -1.044874,1.020475 -1.587891,2.089844 -0.428534,0.843405 -0.82244,1.800549 -1.152344,2.648438 0.530637,-0.460894 1.048759,-0.936265 1.548828,-1.429688 0.108614,-0.405892 0.395609,-1.151112 0.816407,-1.710938 0.105388,-0.139956 0.541101,-0.680779 0.74414,-1.103515 0.07026,0.242338 0.07254,0.651897 0.05469,0.814453 -0.01089,0.09839 -1.94e-4,0.187535 0.0039,0.279297 0.2355,-0.268061 0.472383,-0.5349 0.699219,-0.810547 -0.02967,-0.344373 -0.09838,-0.68793 -0.277344,-0.896484 -0.291156,-0.340562 -0.729728,-0.826781 -0.972656,-1.021485 -0.242931,-0.194107 -0.63147,-0.04808 -0.826172,-0.242187 -0.19429,-0.194607 -0.923701,-0.971923 -1.361328,-1.3125 -0.437634,-0.33998 -1.215918,-0.827389 -1.798828,-1.167969 -0.58351,-0.33998 -1.215534,-0.630599 -3.208985,-1.457031 -1.992851,-0.826432 -2.089444,-0.77977 -3.255859,-1.314453 -1.167011,-0.534685 -1.994622,-1.019396 -2.626953,-1.359375 -0.631735,-0.34058 -2.1875,-1.021485 -2.1875,-1.021485 0,0 -0.292231,-0.291609 -0.583985,-0.4375 -0.147671,-0.07389 -0.332041,-0.172697 -0.478515,-0.251953 -0.143497,-0.07805 -0.25,-0.136719 -0.25,-0.136719 0,0 -0.826772,-1.022704 -0.923828,-1.314453 -0.09706,-0.291747 -0.438113,-1.021332 -0.632813,-1.3125 -0.194104,-0.291748 -0.339107,-0.534409 -0.630859,-0.728515 -0.254837,-0.169726 -0.325248,-0.192032 -0.371094,-0.324219 -0.07144,-0.372145 -0.119404,-0.72274 -0.164062,-1.085938 0,0 0.438105,-0.923095 0.583984,-1.214843 0.145275,-0.29115 1.311162,-2.140489 1.505859,-2.480469 0.194108,-0.33998 0.584593,-0.874254 0.730469,-1.06836 0.145875,-0.194703 0.339849,-0.242942 0.388672,-0.04883 0.04823,0.194704 0.194564,0.582641 0.388672,0.728516 0.194702,0.145946 0.437364,0.486328 0.777344,0.486328 0.340577,0 0.729736,-0.04818 1.11914,-0.388672 0.388803,-0.339998 0.679552,-0.632077 1.019531,-1.021484 0.340579,-0.388811 0.876213,-1.020749 1.167969,-1.361328 0.29175,-0.33998 0.876208,-0.87427 1.119141,-1.117188 C 72.223396,49.16722 72.805303,48.486469 73,48.048828 c 0.194106,-0.437622 0.292969,-0.68211 0.292969,-1.265625 0,-0.583496 -0.09827,-0.775998 -0.244141,-0.970703 -0.145875,-0.194704 -0.534419,-0.681641 -0.826172,-0.681641 -0.290562,0 -1.017911,0.04883 -1.021484,0.04883 0,0 0.291021,-0.194564 0.339844,-0.4375 0.04882,-0.242917 0.05002,-0.389283 0.24414,-0.535157 0.194702,-0.145948 0.193963,-0.533812 0.291016,-0.679687 0.08991,-0.13451 0.427585,-0.559338 0.669922,-0.929688 0.128619,-0.143405 0.262946,-0.291027 0.394531,-0.4375 0.209587,-0.157746 0.437416,-0.286361 0.589844,-0.529297 0.242927,-0.38939 0.777947,-1.799912 0.875,-2.382812 0.981838,-5.886862 -2.770598,-14.239922 -8.900391,-15.867188 l -0.0059,-0.002 c -0.268533,-0.07085 -0.541494,-0.129778 -0.81836,-0.173828 -1.22834,-0.197085 -2.042443,0.291755 -3.74414,-0.04883 -1.000666,-0.20021 -2.809686,-0.660297 -4.464844,-0.716797 v 0.0039 c -0.993095,-0.03389 -1.93077,0.078 -2.603516,0.476563 -0.395948,0.234595 -0.579774,0.429985 -0.660156,0.607422 -0.160159,0.356057 0.0911,0.64226 -0.146484,1.042968 -0.734741,1.239061 -0.461655,0.01118 -1.3125,2.138672 -0.194109,0.485857 -0.924441,1.311769 -1.119141,1.701172 -0.194106,0.388803 -0.436153,0.631942 -0.582031,1.3125 -0.119685,0.558498 -0.567713,1.541084 -0.804688,2.064453 -0.137541,0.284606 -0.26175,0.549159 -0.345703,0.761719 -0.04048,0.103012 -0.08839,0.270124 -0.142578,0.478516 -0.10479,0.316169 -0.19341,0.639978 -0.214844,0.876953 -0.002,0.02143 -0.0049,0.04395 -0.0078,0.06836 -0.286991,1.31289 -0.595703,2.988282 -0.595703,2.988282 0.01434,-0.03335 0.03437,-0.08202 0.06055,-0.144532 -0.01128,0.154205 -0.02612,0.282594 -0.138672,0.394532 -0.194108,0.1947 -0.144401,0.291618 -0.533203,0.388671 -0.297705,0.07442 -0.533473,0.34898 -0.626953,0.47461 -0.08098,-0.0024 -0.16121,-0.0039 -0.242188,-0.0039 l -1.462891,-0.0039 c -0.15956,-7.83e-4 -0.216796,0.09811 -0.216797,0.179688 v 0.396484 c 0,0.21971 0.463676,0.280555 0.451172,0.544922 l -0.08984,1.830078 c -0.06907,1.431966 0.429093,1.998682 1.300781,2.5 1.38553,0.796681 2.272712,0.987959 3.791016,1.228516 0.821077,0.129787 1.435113,0.05951 2.210937,-0.816406 l 1.291016,-1.458985 c 0.265553,-0.300681 0.545714,-0.657679 1.146484,-0.310547 0.22626,0.131061 0.234331,0.201082 0.261719,0.5625 l 0.144531,1.916016 c 0.108375,1.439716 0.939436,2.021612 2.130859,2.455078 1.18904,0.432269 2.221668,0.768283 3.486328,0.908203 0.878835,0.09766 1.858911,0.193969 2.292969,-0.691406 l 0.9375,-1.917969 c 0.111933,-0.228631 0.295705,-0.715553 0.541016,-0.646484 l 0.904297,0.251953 c 0.152427,0.04284 0.273818,0.04103 0.55664,0.04883 l 1.875,0.05273 c -0.0065,0.07569 -0.01481,0.155315 -0.02734,0.236329 -0.525152,0.791307 -0.613134,1.521913 -0.597657,1.986328 -0.109556,0.279858 -0.226619,0.562556 -0.345703,0.841796 -1.189039,2.781775 -2.867003,2.912177 -4.927734,4.417969 -1.603451,1.172367 -1.005411,3.123953 -2.457031,4.478516 -1.41768,1.322416 -4.038361,1.580628 -5.84961,1.154297 -0.217919,-0.05064 -1.071797,-0.953475 -2.021484,-1.298828 -1.349207,-0.490609 -1.776165,0.30018 -2.746094,-0.667969 -1.293838,-1.292047 -1.478186,-3.827932 -2.345703,-6.048828 -0.633522,-1.623693 -0.305489,-3.074056 -0.794922,-4.298828 -0.655548,-1.638579 0.325981,-2.30982 -0.226562,-2.957032 -0.09229,0.333426 0.0032,0.663658 -0.115235,1.007813 -0.195894,0.568629 -0.125,0.74716 -0.125,1.378906 0,0.194687 0.09631,0.778552 0.19336,0.972656 0.09707,0.194704 0.146484,0.777208 0.146484,1.117188 0,0.34058 0.04942,0.875626 0.146484,1.070312 0.09704,0.194106 -0.0013,0.583252 0.0957,0.875 0.09704,0.291168 0.244153,0.777206 0.390624,1.166016 0.145874,0.389391 0.242802,0.875488 0.388672,1.458984 0.145875,0.583515 0.242793,1.119017 0.388672,1.556641 0.145874,0.43764 0.242795,0.826036 0.388672,1.166016 l 0.583984,1.361328 c 0.145875,0.339978 0.4375,0.730469 0.4375,0.730469 0,0 0.005,0.76614 0.0098,1.433593 l -0.0098,-0.02344 c -0.525749,0.254244 -0.69001,0.753437 -0.814453,1.138672 -0.260195,0.231026 -0.835535,0.742197 -1.130859,1 -0.389402,0.340577 -1.361328,1.263672 -1.361328,1.263672 0,0 -1.020623,0.193968 -1.798828,0.388671 -0.777613,0.194106 -1.118871,0.193968 -1.896485,0.388672 -0.778206,0.194106 -1.264156,0.388667 -1.896484,0.486328 -0.631736,0.09712 -1.506942,0.145139 -2.1875,0.339844 -0.68056,0.194686 -1.458853,0.486938 -1.896484,0.632813 -0.437629,0.145945 -1.410025,0.680296 -1.847657,0.875 -0.437033,0.194705 -1.456897,0.874253 -1.845703,1.068359 -0.389401,0.194705 -0.680305,0.488278 -0.923828,0.537109 -0.242928,0.04828 -0.82738,0.04753 -1.021484,0.242188 -0.12169,0.121623 -0.463407,0.451594 -0.744141,0.777344 C 26.78561,62.612387 25.27732,57.155956 25.27732,51.345658 c 0,-18.211343 14.766579,-32.976562 32.978515,-32.976562 z m -1.074218,52.55664 -1.660157,3.322266 c 0,0 -2.817396,5.706845 -4.117187,8.234375 -0.09931,0.193343 -0.356768,0.749687 -0.482422,1.011719 0.60079,0.136507 1.205598,0.258113 1.818359,0.361328 2.809158,-5.617932 4.976568,-10.995041 4.441407,-12.929688 z m 19.449218,7.804688 c 0.330716,-0.222389 0.654484,-0.455576 0.976563,-0.689453 0.29295,-0.867748 0.594476,-1.702623 0.736328,-1.986328 0.70675,-1.413506 1.559733,-4.609348 2.666016,-5.556641 -1.354028,-0.182233 -3.404867,5.351154 -4.378907,8.232422 z M 55.308594,29.296875 c 0.855356,-0.03819 3.165472,0.806259 3.251953,2.095703 0.153027,-0.286992 -0.13979,-1.015432 -0.695313,-1.542969 0.641856,0.329861 0.967144,1.276329 1.117188,1.941407 0.222684,0.984816 0.182281,2.059198 0.154297,3.285156 -0.02501,1.085445 1.382695,2.564666 2.273437,3.152344 0.910981,0.601368 2.017533,0.965002 3.173828,1.175781 0.07383,0.235784 0.160239,0.462635 0.265625,0.675781 0.553736,1.122956 1.572818,2.380483 2.777344,1.275391 -1.349806,0.479898 -1.919581,-0.537449 -2.125,-1.816407 0.799641,0.09348 1.604295,0.12767 2.365235,0.126954 -0.859185,-0.08931 -1.661317,-0.205989 -2.398438,-0.369141 -0.02143,-0.175046 -0.03813,-0.352624 -0.04883,-0.53125 0.713306,0.123853 1.438411,0.117053 2.068359,-0.107422 -0.519797,0.105388 -1.283079,0.09595 -2.076172,-0.05469 -0.0078,-0.191128 -0.01162,-0.381994 -0.0098,-0.56836 0.365586,0.114322 0.732021,0.195598 1.076172,0.226563 -0.437632,-0.09466 -0.780677,-0.200131 -1.074219,-0.314453 0.002,-0.122061 0.005,-0.242672 0.0098,-0.359375 0.07204,-1.621907 -0.06722,-0.537978 1.039063,-0.06641 2.229827,0.950874 2.463952,4.116676 2.078125,6.417969 -0.04944,0.171543 -0.09783,0.344486 -0.148438,0.519531 l -1.826171,-0.160156 c -0.239358,-0.02143 -0.306034,-0.03516 -0.466797,-0.0918 l -0.619141,-0.214843 c -0.696635,-0.242937 -0.725897,-0.428262 -1.283203,-0.726563 -0.67282,-0.36022 -1.679979,-0.724582 -2.888672,-1.15625 -1.308127,-0.466814 -3.069767,-0.867 -4.478516,-0.830078 -0.789518,0.02143 -1.514564,0.172286 -1.949218,0.07227 -0.384044,-0.08877 -0.989311,-0.533771 -1.648438,-1.013671 -0.846676,-0.616244 -1.787339,-1.134895 -2.779297,-1.519532 -0.865135,-0.337006 -1.770392,-0.571918 -2.685547,-0.679687 v -0.0039 c 0.01075,-0.08516 0.04014,-0.160384 0.121094,-0.28125 0.07563,-0.113725 0.193341,-0.356782 0.207032,-0.384766 0.02857,-0.028 0.05644,-0.05887 0.08203,-0.08984 0.180419,0.197676 0.417039,0.126272 0.671875,0.181641 1.4933,0.320931 2.809497,0.791291 3.648437,1.804687 0.350105,0.423358 1.01012,0.867696 1.515625,1.228516 -0.241738,-1.651099 -0.937927,-2.673554 -2.273437,-3.046875 -0.951472,-0.266154 -2.095341,-0.419866 -3.44336,-0.349609 0.04525,-0.08991 0.07504,-0.185891 0.08398,-0.28711 0.267939,-0.889551 0.581421,-1.851401 0.693359,-2.720703 0.213756,-0.475737 0.618103,-1.044598 0.732422,-1.445312 0.254241,-0.885378 0.296322,-1.21231 1.091797,-1.923829 0.0084,-0.0074 0.01624,-0.01509 0.02344,-0.02344 0.301275,-0.297109 0.74295,-0.467324 0.744141,-0.201172 0.01128,0.06609 0.01302,0.119577 0.0078,0.166016 -0.01248,0.112543 -0.06498,0.178384 -0.11914,0.248047 -0.31855,0.414408 -0.04768,0.543078 0.382812,0.425781 0.35189,-0.09526 0.542714,-0.374979 0.902344,-0.4375 0.611492,-0.10657 1.291908,0.339782 1.726563,1.042969 -0.233406,-0.684725 -1.340595,-1.525762 -2.066407,-1.146485 0.132769,-0.08038 0.260776,-0.15823 0.369141,-0.193359 0.491218,-0.159561 0.914268,-0.200355 1.355469,-0.08008 1.116404,1.298596 1.536873,2.964555 4.607422,4.0625 -2.077398,-0.827032 -3.201073,-2.337454 -3.722657,-3.628906 1.481987,0.991962 1.737507,1.92879 3.847657,2.623046 -2.131581,-0.86335 -2.437951,-1.923076 -3.808594,-2.841796 -0.05121,-0.03393 -0.103868,-0.06745 -0.15625,-0.09961 -0.04288,-0.127411 -0.07978,-0.252775 -0.111328,-0.373047 0.162557,0.07978 0.339931,0.159256 0.542968,0.240235 -0.09051,-0.167311 -0.161589,-0.318133 -0.21875,-0.455078 1.423039,0.566835 2.9701,1.679361 3.695313,2.33789 -0.532301,-0.548377 -2.031254,-1.880608 -3.773437,-2.546875 -0.04346,-0.130995 -0.07071,-0.246268 -0.08203,-0.345703 1.507588,0.525749 3.001917,1.496433 3.691406,2.419922 -0.695444,-1.141408 -2.24881,-2.13426 -3.685546,-2.644531 0.05202,-0.04272 0.145389,-0.06683 0.267578,-0.07227 z m -1.976563,0.523437 0.0039,0.0039 c 0.238761,0.163737 0.443736,0.340981 0.628906,0.527343 -0.328667,-0.05238 -0.687103,-0.04296 -1.080078,0.05469 -0.442987,0.110153 -0.357987,-0.0098 -0.273438,-0.199219 0.187556,-0.213159 0.434306,-0.335511 0.720703,-0.386719 z m 9.083985,4.521485 c 0.732543,0.0064 1.406361,2.176807 1.458984,2.681641 0.05537,-0.76749 -0.372217,-1.75378 -0.71875,-2.546876 0.58827,0.810361 0.81161,1.816612 0.990234,2.822266 -0.587077,-0.346531 -1.294908,-1.044237 -1.71289,-1.664062 -0.01616,-0.257816 0.0023,-0.467933 0.130859,-0.347657 0.274485,0.257816 0.651324,0.641354 0.960938,1.38086 -0.06013,-0.441201 -0.592034,-2.399897 -1.423829,-2.185547 0.105467,-0.09862 0.209807,-0.141532 0.314454,-0.140625 z m -0.261719,1.785156 c 0.394756,0.625183 0.636357,0.923585 1.162109,1.171875 -0.537065,-0.422744 -0.684676,-0.681333 -0.800781,-1.019531 0.229829,0.367967 0.881758,0.855147 1.671875,1.255859 0.04466,0.259004 0.08909,0.516476 0.136719,0.769532 -0.93897,-0.344747 -1.780637,-0.912085 -2.150391,-1.748047 0.406074,0.799044 1.461212,1.32144 1.910156,1.410156 -0.745459,-0.301875 -1.380715,-0.833591 -1.929687,-1.839844 z m -0.01563,1.03125 c 0.368561,0.447748 1.223979,0.984146 2.220703,1.330078 0.0369,0.186364 0.07583,0.36961 0.121094,0.548828 -0.236973,-0.07443 -0.465244,-0.155432 -0.685547,-0.24414 -0.469786,-0.20959 -1.496083,-0.841081 -1.65625,-1.634766 z m -14.566406,1.308594 c 0.729974,0.06432 1.745368,0.418312 2.748046,0.826172 0.563263,0.228631 1.746509,0.691466 2.419922,1.263672 0.448351,0.381058 0.633462,0.760774 0.396485,1.335937 -0.119684,0.29115 -0.547722,1.139769 -1.009766,1.806641 -0.506698,0.731766 -0.932437,0.813745 -1.630859,0.722656 -1.39386,-0.182197 -2.599278,-0.479153 -3.773433,-1.273437 C 46.365408,42.9067 46.124247,42.71592 45.962891,42.525391 45.615168,42.117538 45.625069,41.71183 45.583984,40.808594 l 0.06836,-0.916016 c 0.04288,-0.575768 0.08067,-0.946753 0.289062,-1.101562 0.163737,-0.119087 0.387987,-0.03299 0.75,-0.09375 0.02322,-7.81e-4 0.04465,0 0.0625,0 l 0.03125,0.5 c 0,0 -0.18843,0.297664 -0.240234,0.738281 -0.05238,0.4406 0.09318,0.802239 0.128906,1.054687 0.03631,0.253065 0.07206,0.312081 -0.111328,0.669922 -0.182793,0.357244 -0.596635,0.861659 -0.599609,0.865235 0.0041,-0.0036 0.379265,-0.270815 0.675781,-0.632813 0.366775,-0.44835 0.260402,-0.909401 0.183594,-1.361328 0.141117,-0.697821 0.786806,-0.834642 0.609375,-1.455078 -0.144096,-0.505508 0.140625,-0.609375 0.140625,-0.609375 z m 1.59375,1.1875 c -0.366179,-0.0019 -0.580945,0.163392 -0.722657,0.289062 0.180418,-0.07207 0.319275,-0.07227 0.433594,-0.07227 0.332836,-7.8e-4 0.74863,0.03084 1.166016,0.08984 -0.118477,0.112542 -0.19336,0.27255 -0.19336,0.451171 0,0.3388 0.26839,0.615235 0.597657,0.615235 0.329262,0 0.595703,-0.276435 0.595703,-0.615235 0,-0.09584 -0.02048,-0.1866 -0.05859,-0.267578 0.44656,0.11853 0.803125,0.271779 0.925781,0.449219 0.148851,0.214347 0.221241,0.482769 0.150391,0.988281 -1.810654,0.189332 -2.912087,-0.760649 -3.183594,-1.710937 0.136344,1.296821 1.369321,2.269183 3.210938,1.763672 0.118477,-0.02214 0.239674,-0.05345 0.324218,-0.101563 l 0.002,-0.002 h 0.002 c 0.06292,-0.03672 0.104457,-0.08419 0.107422,-0.144531 0.06787,-1.214045 -0.792832,-1.380098 -1.697266,-1.587891 -0.52337,-0.120349 -1.081417,-0.141627 -1.660156,-0.144531 z m 10.097656,0.357422 c -1.024468,0.01997 -2.371294,0.345913 -3.021484,1.158203 0.902647,-0.144131 1.491165,-0.09761 2.058593,-0.03516 0.939566,0.103105 1.271866,-0.345258 2.167969,-0.179688 1.372428,0.252466 4.369275,1.082798 4.802734,2.310547 0,-1.444474 -2.673417,-2.600173 -5.128906,-3.177734 -0.23251,-0.05482 -0.537415,-0.08287 -0.878906,-0.07617 z M 57.3125,41.691406 c 0.231323,3.99e-4 0.465985,0.01001 0.701172,0.03125 1.07115,0.09475 2.165456,0.383951 3.121094,0.716797 0.932418,0.324495 1.824235,0.71373 2.583984,1.078125 0.342959,0.163737 0.499242,0.694287 0.289062,1.373047 -0.30545,0.983035 -0.397837,1.335661 -0.914062,2.175781 -0.401907,0.655563 -1.115115,0.717009 -2.263672,0.544922 -1.074722,-0.161376 -2.692798,-0.601516 -3.648437,-1.095703 -0.701996,-0.362616 -0.947778,-0.744715 -0.792969,-1.517578 0.231021,-1.158062 0.244829,-1.534808 -0.326172,-2.5625 -0.120866,-0.217921 -0.09128,-0.409821 0.04687,-0.503906 0.154806,-0.104737 0.328403,-0.189326 0.519531,-0.208985 0.223877,-0.02287 0.452276,-0.0316 0.683594,-0.03125 z m 1.820312,0.490235 c -0.74963,0.03685 -1.265625,0.361328 -1.265624,0.361328 l 0.216796,0.324219 c 0.77821,1.167028 1.949801,1.805894 4.31836,1.03125 -2.025006,0.516822 -3.5426,-0.01369 -3.970703,-1.078126 0.216731,-0.103103 0.468888,-0.126484 0.742187,-0.107421 -0.0649,0.108375 -0.101562,0.236104 -0.101562,0.373047 0,0.393565 0.309912,0.71289 0.693359,0.71289 0.382851,0 0.693359,-0.319325 0.693359,-0.71289 0,-0.04284 -0.0025,-0.08453 -0.0098,-0.125 0.75677,0.217322 1.501801,0.559418 1.953125,0.9375 0.26496,0.221497 0.514213,0.455244 0.701172,0.666015 -0.263768,-1.055664 -2.786424,-2.441173 -3.970704,-2.382812 z m 13.080079,3.441406 c 0.11699,0.0073 0.224843,0.0246 0.314453,0.06055 0.106569,0.09821 0.141482,0.221045 0.03906,0.322265 -0.522772,-0.14286 -0.937223,0.509967 -0.794922,1.160157 0.415005,1.894602 -1.261292,2.48474 -1.3125,3.443359 -0.52575,0.59898 -1.083478,1.226102 -1.59375,1.806641 -0.342359,0.389989 -0.824708,0.599609 -1.248046,0.599609 -0.190533,0 -0.417199,-0.156966 -0.576172,-0.289063 -0.185177,-0.15484 -0.333536,-0.377859 -0.398438,-0.541015 -0.13814,-0.346515 -0.307342,-0.60117 -0.447266,-0.527344 0.0089,-0.0054 0.01786,-0.0079 0.02734,-0.0098 L 66.119141,51.5 c 0.877643,-0.721058 1.15991,-0.846129 1.310547,-0.794922 0.06073,0.05954 0.117087,0.108908 0.171874,0.146484 0.08871,0.08513 0.217967,0.160784 0.53711,0.0918 l 0.04102,-0.0098 c 0.01724,-0.0036 0.03487,-0.008 0.05273,-0.01172 0.318544,-0.08695 0.415271,-0.582124 0.867187,-0.6875 0.419771,-0.09766 1.030673,-0.460545 1.226563,-0.902344 0.0078,-0.01634 0.01439,-0.03353 0.02148,-0.05078 l 0.0078,-0.01563 0.0098,-0.02344 c 0.06787,-0.173901 0.09528,-0.316797 0.09766,-0.439454 0.0089,-0.213165 -0.04763,-0.422733 -0.208985,-0.613281 -0.185177,-0.338782 -0.34153,-0.739774 0.267578,-1.835937 0.0048,-0.009 0.178586,-0.344799 0.382813,-0.523438 0.078,-0.06789 0.139595,-0.144531 0.253906,-0.144531 0.270617,0 0.703693,-0.08089 1.054688,-0.06055 z m -20.736329,0.748047 c -3.250368,1.011008 -1.625,2.093878 -1.625,2.527344 0,0.954444 1.073495,0.08773 1.769532,0.867187 0.328075,0.367372 0.670767,0.893599 1.083984,0.939453 0.649597,0.07207 0.938143,-0.433303 1.732422,-0.144531 0.676391,0.245913 0.808555,0.638876 1.191406,0.613281 0.541827,-0.03576 2.057889,-0.54293 1.046875,-2.925781 0.505509,1.877339 -0.505073,2.095485 -1.082031,2.023437 -0.485857,-0.06081 -0.812518,-0.68757 -1.314453,-1.064453 -0.08395,-0.06372 -0.205112,-0.125407 -0.337891,-0.171875 -0.467994,-0.161377 -0.553036,-0.10271 -0.730468,0.08008 -0.541232,0.557303 -1.179576,0.464929 -1.554688,-0.251953 -0.06729,-0.128699 -0.06061,-0.20709 -0.179688,-0.326172 -0.288775,-0.28877 -0.578698,-0.288826 -1.15625,-0.216797 -0.57815,0.07207 -1.515973,-0.866164 1.15625,-1.949218 z M 47.9375,49.693359 c 0.02915,0.397142 0.366028,0.976591 0.757812,1.625 0.428697,0.709731 0.803736,1.58552 1.121094,2.347657 1.310508,3.146167 4.404916,2.092602 5.777344,0.9375 0.612684,-0.516223 2.310478,-0.503761 2.658203,-1.666016 -2.023219,0.400718 -3.115377,-0.33361 -4.210937,-0.824219 -0.541232,-0.242338 -0.745883,-0.395243 -1.335938,-0.326172 -0.613872,0.07207 -0.797019,-0.04646 -1.11914,-0.251953 -0.208986,-0.13215 -0.278511,-0.285908 -0.855469,-0.447265 -0.363797,-0.101831 -0.861885,-0.22653 -0.986328,-0.240235 -0.419175,-0.04466 -0.819819,0.01714 -1.121094,-0.324218 -0.149451,-0.169727 -0.399749,-0.547244 -0.685547,-0.830079 z m 22.460938,0.720703 c 0,0 -0.506365,0.507813 -0.867188,0.507813 -0.361417,0 -0.397143,-0.03786 -0.613281,0.142578 -0.122061,0.101844 -0.133965,0.373472 0,0.433594 0.0655,0.02923 0.16493,0.06104 0.30664,-0.107422 0.08813,-0.104738 0.161582,-0.144531 0.378907,-0.144531 0.108374,0 0.794922,-0.830078 0.794922,-0.830078 z M 49.09375,51.498047 c 0.815123,0.543614 0.969698,0.834296 1.732422,1.011719 0.447751,0.104193 0.920467,0.449295 1.15625,0.505859 0.252454,0.06063 0.664837,-0.09164 1.11914,-0.0078 0.900863,0.16664 1.189754,0.475632 1.625,0.583985 0.472163,0.11853 1.227114,0.144277 2.382813,-0.144531 -1.546293,0.690089 -2.888128,1.083765 -4.910156,1.011718 -1.354567,-0.04828 -2.166501,-1.155628 -3.105469,-2.960937 z m 0.08008,5.873047 c 0.332834,0.450129 0.680562,0.759268 1.435547,1.060547 0.613278,0.245313 1.51167,0.489631 2.3125,0.65039 1.265257,0.253647 2.337048,0.258238 3.617187,0.144531 2.201245,-0.194705 3.684275,-0.792496 5.740235,-1.853515 -0.229234,0.78833 -0.419499,1.671665 -1.341797,2.359375 -0.389402,0.29055 -3.524362,2.502924 -5.994141,4.332031 -1.163437,0.862157 -2.047767,1.64872 -2.691406,2.195313 -0.280443,-0.316164 -1.002065,-0.532316 -1.498047,-0.648438 -0.03631,-0.732348 -0.03592,-1.546786 -0.07227,-1.908203 -0.139333,-1.398622 -0.806793,-2.118986 -1.226563,-3.539063 -0.187556,-0.634704 -0.259222,-1.900441 -0.28125,-2.792968 z m -5.195312,5.304687 -1.457032,1.029297 c 0,0 -1.010251,0.215773 -1.949218,1.298828 -0.93897,1.083654 -2.240208,2.166362 -2.81836,2.671875 -0.577552,0.505496 -1.444216,1.083253 -1.697265,1.263672 -0.253049,0.180437 -0.396265,0.326682 -0.324219,0.6875 0.07204,0.361419 0.180691,0.540214 0.289062,1.082031 0.108375,0.541237 0.939454,2.816407 0.939454,2.816407 l -1.646485,1.498047 c 0.350313,0.339507 0.707759,0.671853 1.072266,0.996093 -0.365192,-0.323914 -0.721827,-0.656489 -1.072266,-0.996093 -0.879344,-0.852158 -1.717637,-1.746505 -2.498047,-2.691407 0.308988,-2.337054 0.789817,-4.969249 1.4375,-6.943359 -1.260004,1.796838 -1.866143,4.102928 -2.208984,5.960937 -0.808356,-1.057525 -1.552709,-2.165667 -2.230469,-3.318359 0.171779,-0.258022 0.587961,-0.671216 0.810547,-0.890625 0.172669,-0.05355 0.534193,-0.06565 0.705078,-0.09961 0.441796,-0.08822 0.723212,-0.406529 1.105469,-0.597657 0.332243,-0.165551 0.669732,-0.387925 0.988281,-0.582031 0.254837,-0.155386 0.559166,-0.351796 0.830078,-0.472656 0.314977,-0.139957 0.626527,-0.306133 0.935547,-0.460938 0.257812,-0.129242 0.573596,-0.298182 0.845703,-0.388672 0.622803,-0.20781 1.234264,-0.442048 1.867188,-0.623046 0.661507,-0.188751 1.416504,-0.21747 2.097656,-0.322266 0.669247,-0.102374 1.308529,-0.33431 1.962891,-0.498047 0.628162,-0.157202 1.265939,-0.23089 1.896484,-0.388672 0.0399,-0.01089 0.07927,-0.02109 0.119141,-0.03125 z M 36.40625,76.037109 c 0.357851,0.317812 0.721708,0.627892 1.09375,0.929688 -0.371669,-0.301475 -0.735712,-0.612624 -1.09375,-0.929688 z m 8.660156,5.535157 c 0.505678,0.221767 1.018695,0.43003 1.53711,0.626953 -0.519352,-0.196254 -1.030642,-0.40561 -1.53711,-0.626953 z m 1.628906,0.664062 c 0.450134,0.169427 0.907875,0.322753 1.367188,0.472656 -0.4596,-0.149285 -0.916687,-0.303979 -1.367188,-0.472656 z m 1.685547,0.580078 c 0.538535,0.169553 1.082392,0.32712 1.632813,0.46875 -0.550354,-0.141609 -1.093969,-0.299833 -1.632813,-0.46875 z m 8.056641,1.455078 c 0.05033,0.0026 0.100006,0.0074 0.150391,0.0098 -0.05033,-0.0025 -0.100118,-0.007 -0.150391,-0.0098 z"/></g>
</svg>