<svg width="82.75" height="28" aria-label="PHP" role="img" version="1.1" xmlns="http://www.w3.org/2000/svg" xmlns:cc="http://creativecommons.org/ns#" xmlns:dc="http://purl.org/dc/elements/1.1/" xmlns:rdf="http://www.w3.org/1999/02/22-rdf-syntax-ns#"><title>YII2</title><g shape-rendering="crispEdges"><rect width="32" height="28" fill="#ebf1f2"/><rect x="32" width="50.75" height="28" fill="#1e6887"/></g><g fill="#fff" font-family="Verdana,Geneva,DejaVu Sans,sans-serif" font-size="100" text-anchor="middle" text-rendering="geometricPrecision"><g transform="matrix(.01941 0 0 .017584 9.6838 6.9662)"><path class="st0" d="m481.4 508.54c-5.4-71.26-28.382-117.45-39.574-143.63-11.187-26.174-28.387-50.675-28.398-50.637-0.033 0.112-15.486 83.388-43.271 143.64-4.638 10.064-10.797 22.626-17.013 32.744l2e-3 1e-3c-19.183 33.866-47.013 66.265-63.604 99.105-16.449 32.546-19.501 64.78-17.97 101.43 1.543 36.85 10.054 72.992 18.227 108.82 30.81-6.647 57.628-18.023 80.825-32.563 61.05-38.274 97.939-99.492 108.42-165.44 0 0 0.511-2.678 0.738-5.945 4.729-50.972 3.165-67.054 1.615-87.515z" fill="#40b3d8"/><path class="st1" d="m481.4 508.54c-5.4-71.26-28.382-117.45-39.574-143.63-11.187-26.174-28.387-50.675-28.398-50.637 0 0-4e-3 0.017-4e-3 0.018 1e-3 -0.011 4e-3 -0.023 4e-3 -0.023l-4.106-6.105c-90.029-126.38-262.69-189.48-408.57-131-7.024 88.584 34.046 241 183.88 283.52 60.572 18.634 109.08 13.803 168.52 29.966-3e-3 2e-3 -3e-3 4e-3 -5e-3 5e-3 0 0 60.424 21.058 95.576 52.638 15.813 14.202 31.646 32.891 30.851 55.121 5.009-52.906 3.405-69.091 1.83-89.876z" clip-rule="evenodd" fill="#83c933" fill-rule="evenodd"/><g transform="translate(233.56 496.88)"><path class="st2" d="m182.41-256.77c-21.289-62.282-12.267-104.02 26.679-162.1 18.575-27.711 50.648-59.854 78.756-78.01 113.41 71.067 155.34 203.44 113.64 326.38-30.354 89.45-58.833 126.96-130.84 218.99 8.393-98.569-26.297-166.9-60.359-242.83-8.667-19.318-20.655-41.311-27.871-62.428" clip-rule="evenodd" fill="#f18a2a" fill-rule="evenodd"/></g><g transform="translate(245.4 498.56)"><path class="st3" d="m234.16 99.853c0.795-22.23-15.038-40.919-30.852-55.121-35.152-31.579-95.574-52.637-95.574-52.637 6.217-10.118 12.375-22.681 17.012-32.745 27.786-60.252 43.239-143.53 43.272-143.64 0.011-0.038 17.21 24.464 28.398 50.637 11.193 26.179 34.175 72.368 39.574 143.63 1.573 20.785 3.177 36.971-1.83 89.877z" fill="#7fb93c"/></g></g><text transform="scale(.1)" x="573.75" y="175" fill="#ffffff" font-weight="bold" textLength="267.5">Yii2</text></g><metadata><rdf:RDF><cc:Work rdf:about=""><dc:title>YII2</dc:title></cc:Work></rdf:RDF></metadata></svg>
